<svg id="Group_35490" data-name="Group 35490" xmlns="http://www.w3.org/2000/svg" xmlns:xlink="http://www.w3.org/1999/xlink" width="200.02" height="189.662" viewBox="0 0 200.02 189.662">
  <defs>
    <clipPath id="clip-path">
      <rect id="Rectangle_18828" data-name="Rectangle 18828" width="200.02" height="189.662" fill="none"/>
    </clipPath>
    <clipPath id="clip-path-3">
      <rect id="Rectangle_19347" data-name="Rectangle 19347" width="174.003" height="153.457" fill="none"/>
    </clipPath>
    <clipPath id="clip-path-5">
      <rect id="Rectangle_19329" data-name="Rectangle 19329" width="157.388" height="137.065" fill="none"/>
    </clipPath>
    <clipPath id="clip-path-8">
      <rect id="Rectangle_19333" data-name="Rectangle 19333" width="93.355" height="1.89" fill="none"/>
    </clipPath>
    <clipPath id="clip-path-9">
      <rect id="Rectangle_19334" data-name="Rectangle 19334" width="3.183" height="28.253" fill="none"/>
    </clipPath>
    <clipPath id="clip-path-10">
      <rect id="Rectangle_19335" data-name="Rectangle 19335" width="25.661" height="29.343" fill="none"/>
    </clipPath>
    <clipPath id="clip-path-11">
      <rect id="Rectangle_19336" data-name="Rectangle 19336" width="7.959" height="7.959" fill="none"/>
    </clipPath>
    <clipPath id="clip-path-12">
      <rect id="Rectangle_19337" data-name="Rectangle 19337" width="7.959" height="7.958" fill="none"/>
    </clipPath>
    <clipPath id="clip-path-13">
      <rect id="Rectangle_19338" data-name="Rectangle 19338" width="3.707" height="3.784" fill="none"/>
    </clipPath>
    <clipPath id="clip-path-14">
      <rect id="Rectangle_19339" data-name="Rectangle 19339" width="95.918" height="49.155" fill="none"/>
    </clipPath>
    <clipPath id="clip-path-15">
      <rect id="Rectangle_19340" data-name="Rectangle 19340" width="28.983" height="1.89" fill="none"/>
    </clipPath>
    <clipPath id="clip-path-16">
      <rect id="Rectangle_19341" data-name="Rectangle 19341" width="17.966" height="22.391" fill="none"/>
    </clipPath>
    <clipPath id="clip-path-17">
      <rect id="Rectangle_19342" data-name="Rectangle 19342" width="64.807" height="9.88" fill="none"/>
    </clipPath>
    <clipPath id="clip-path-18">
      <rect id="Rectangle_19345" data-name="Rectangle 19345" width="14.297" height="10.326" fill="none"/>
    </clipPath>
  </defs>
  <g id="Group_35487" data-name="Group 35487" clip-path="url(#clip-path)">
    <g id="Group_35481" data-name="Group 35481" transform="translate(-0.001 -0.338)">
      <g id="Group_35480" data-name="Group 35480" clip-path="url(#clip-path)">
        <path id="Path_33192" data-name="Path 33192" d="M175.726,166.769c-29.9,27.494-67.091,27.441-104.925,12.2h0c-22.143-8.917-45.564-24.392-58.294-44.335-17.217-26.607-11.212-49.494,2.066-78.12C32.194,18.492,60.716-4.047,102.7.6c53.869,5.964,87.877,45.143,97.182,97.182,4.689,26.213-5.2,51.554-24.156,68.983" transform="translate(-1.467 0.001)" fill="#e6ebf2"/>
      </g>
    </g>
    <g id="Group_35739" data-name="Group 35739" transform="translate(12.999 17.662)">
      <g id="Group_35781" data-name="Group 35781" clip-path="url(#clip-path-3)">
        <g id="Group_35743" data-name="Group 35743">
          <g id="Group_35742" data-name="Group 35742" clip-path="url(#clip-path-3)">
            <g id="Group_35741" data-name="Group 35741" transform="translate(5.424)" opacity="0.18">
              <g id="Group_35740" data-name="Group 35740">
                <g id="Group_35739-2" data-name="Group 35739" clip-path="url(#clip-path-5)">
                  <path id="Path_33941" data-name="Path 33941" d="M99.616.022C120.991-.5,140.506,8.3,151.588,22.845,173.868,52.089,178,81.31,163.047,96.669a51.167,51.167,0,0,1-25.194,13.649c-21.247,4.442-30.488-8.8-48.052-5.388-23.243,4.51-25.715,31.314-41.335,32.117-14.907.766-31.227-22.689-33.635-44.832C10.661,53.884,46.624,5.17,93.849.384q2.931-.3,5.767-.362" transform="translate(-14.501 0)" fill="#94c8e3"/>
                </g>
              </g>
            </g>
          </g>
        </g>
        <path id="Path_33942" data-name="Path 33942" d="M125.827,90.567l.027,0-.179-1.109Z" transform="translate(-78.667 -55.995)" fill="#abbac2"/>
        <g id="Group_35745" data-name="Group 35745">
          <g id="Group_35744" data-name="Group 35744" clip-path="url(#clip-path-3)">
            <path id="Path_33943" data-name="Path 33943" d="M125.945,98.552a16.243,16.243,0,0,1-.195,2.3l-.138-.023a16.06,16.06,0,0,0,.249-2.275Z" transform="translate(-78.628 -61.688)" fill="#abbac2"/>
            <path id="Path_33944" data-name="Path 33944" d="M122.818,110.606a15.741,15.741,0,0,1-.855,2.147l-.2-.1a15.492,15.492,0,0,0,.872-2.107Z" transform="translate(-76.219 -69.198)" fill="#abbac2"/>
            <path id="Path_33945" data-name="Path 33945" d="M116.391,121.54a14.627,14.627,0,0,1-1.462,1.8l-.206-.2a14.324,14.324,0,0,0,1.459-1.743Z" transform="translate(-71.812 -75.988)" fill="#abbac2"/>
            <path id="Path_33946" data-name="Path 33946" d="M107.075,130.272a13.154,13.154,0,0,1-1.981,1.212l-.144-.293a12.9,12.9,0,0,0,1.938-1.173Z" transform="translate(-65.694 -81.385)" fill="#abbac2"/>
            <path id="Path_33947" data-name="Path 33947" d="M95.66,135.632a13.8,13.8,0,0,1-2.283.432l-.036-.346a13.462,13.462,0,0,0,2.228-.41Z" transform="translate(-58.428 -84.697)" fill="#abbac2"/>
            <path id="Path_33948" data-name="Path 33948" d="M83.379,136.54a18.134,18.134,0,0,1-2.307-.231l.06-.364a17.749,17.749,0,0,0,2.26.237Z" transform="translate(-50.748 -85.096)" fill="#abbac2"/>
            <path id="Path_33949" data-name="Path 33949" d="M71.42,133.517a13.764,13.764,0,0,1-2.159-.865l.163-.32a13.406,13.406,0,0,0,2.1.832Z" transform="translate(-43.354 -82.834)" fill="#abbac2"/>
            <path id="Path_33950" data-name="Path 33950" d="M62.71,125.889a3.237,3.237,0,0,1-.686-.993,2.234,2.234,0,0,1-.129-1.218l.334.048a1.885,1.885,0,0,0,.111,1.038,2.9,2.9,0,0,0,.618.882Z" transform="translate(-38.725 -77.417)" fill="#abbac2"/>
            <path id="Path_33951" data-name="Path 33951" d="M64.969,117.768a.974.974,0,0,1,.646-.186,1.242,1.242,0,0,1,.606.244,2.119,2.119,0,0,1,.734.986l-.3.106a1.8,1.8,0,0,0-.622-.83.922.922,0,0,0-.447-.183.645.645,0,0,0-.434.132Z" transform="translate(-40.668 -73.599)" fill="#abbac2"/>
            <path id="Path_33952" data-name="Path 33952" d="M65.912,126.757a6.436,6.436,0,0,1-1.651,1.651l-.147-.209a6.167,6.167,0,0,0,1.559-1.6Z" transform="translate(-40.132 -79.246)" fill="#abbac2"/>
            <path id="Path_33953" data-name="Path 33953" d="M54.858,133a5.535,5.535,0,0,1-2.308-.268l.058-.184a5.327,5.327,0,0,0,2.224.229Z" transform="translate(-32.894 -82.968)" fill="#abbac2"/>
            <path id="Path_33954" data-name="Path 33954" d="M43.992,127.794a12.7,12.7,0,0,1-1.8-1.441l.057-.061a12.613,12.613,0,0,0,1.816,1.384Z" transform="translate(-26.412 -79.053)" fill="#abbac2"/>
            <path id="Path_33955" data-name="Path 33955" d="M36.97,120.382l-.664-.905.686.888Z" transform="translate(-22.726 -74.788)" fill="#abbac2"/>
            <path id="Path_33956" data-name="Path 33956" d="M369.733,28.9l1.045.412-.011.025Z" transform="translate(-231.437 -18.09)" fill="#abbac2"/>
            <path id="Path_33957" data-name="Path 33957" d="M377.908,32.833a16.258,16.258,0,0,1,1.875,1.339l-.09.106a16.024,16.024,0,0,0-1.83-1.375Z" transform="translate(-236.526 -20.552)" fill="#abbac2"/>
            <path id="Path_33958" data-name="Path 33958" d="M387.211,40.682a15.7,15.7,0,0,1,1.41,1.83l-.187.122a15.514,15.514,0,0,0-1.367-1.825Z" transform="translate(-242.288 -25.465)" fill="#abbac2"/>
            <path id="Path_33959" data-name="Path 33959" d="M393.836,50.98a14.665,14.665,0,0,1,.8,2.174l-.276.075a14.4,14.4,0,0,0-.755-2.144Z" transform="translate(-246.38 -31.911)" fill="#abbac2"/>
            <path id="Path_33960" data-name="Path 33960" d="M397,62.882a13.192,13.192,0,0,1,.031,2.322l-.325-.025a12.841,12.841,0,0,0-.021-2.266Z" transform="translate(-248.309 -39.361)" fill="#abbac2"/>
            <path id="Path_33961" data-name="Path 33961" d="M394.722,75.069a13.832,13.832,0,0,1-.794,2.184l-.316-.146a13.476,13.476,0,0,0,.784-2.126Z" transform="translate(-246.385 -46.935)" fill="#abbac2"/>
            <path id="Path_33962" data-name="Path 33962" d="M388.7,86.165a18.123,18.123,0,0,1-1.376,1.866l-.281-.238a17.806,17.806,0,0,0,1.356-1.823Z" transform="translate(-242.272 -53.814)" fill="#abbac2"/>
            <path id="Path_33963" data-name="Path 33963" d="M380.083,95.491a13.751,13.751,0,0,1-1.846,1.415l-.192-.3a13.428,13.428,0,0,0,1.789-1.385Z" transform="translate(-236.641 -59.602)" fill="#abbac2"/>
            <path id="Path_33964" data-name="Path 33964" d="M368.967,101.157a3.245,3.245,0,0,1-1.2.083,2.233,2.233,0,0,1-1.112-.511l.211-.263a1.889,1.889,0,0,0,.949.434,2.9,2.9,0,0,0,1.073-.082Z" transform="translate(-229.508 -62.888)" fill="#abbac2"/>
            <path id="Path_33965" data-name="Path 33965" d="M363.378,93.691a.972.972,0,0,1,.17-.65,1.238,1.238,0,0,1,.519-.4,2.118,2.118,0,0,1,1.222-.128l-.061.311a1.8,1.8,0,0,0-1.031.112.923.923,0,0,0-.385.291.645.645,0,0,0-.107.44Z" transform="translate(-227.458 -57.888)" fill="#abbac2"/>
            <path id="Path_33966" data-name="Path 33966" d="M372.651,96.878a6.442,6.442,0,0,1,.578,2.263l-.255.02A6.182,6.182,0,0,0,372.393,97Z" transform="translate(-233.102 -60.642)" fill="#abbac2"/>
            <path id="Path_33967" data-name="Path 33967" d="M371.1,108.934a5.536,5.536,0,0,1-1.408,1.849l-.128-.143a5.336,5.336,0,0,0,1.332-1.8Z" transform="translate(-231.328 -68.132)" fill="#abbac2"/>
            <path id="Path_33968" data-name="Path 33968" d="M361.076,117.2a12.726,12.726,0,0,1-2.157.811l-.024-.08a12.618,12.618,0,0,0,2.117-.855Z" transform="translate(-224.654 -73.283)" fill="#abbac2"/>
            <path id="Path_33969" data-name="Path 33969" d="M351.071,120.741l-1.117.11,1.114-.137Z" transform="translate(-219.056 -75.562)" fill="#abbac2"/>
          </g>
        </g>
        <g id="Group_35780" data-name="Group 35780">
          <g id="Group_35779" data-name="Group 35779" clip-path="url(#clip-path-3)">
            <path id="Path_33970" data-name="Path 33970" d="M103.944,53.72s-7.157,26.6-6.416,27.841,18.269,7.564,23.955,3.029a32.49,32.49,0,0,1,.153-7.492c.582-3.336,4.4-19.473,4.4-19.473Z" transform="translate(-61.015 -33.626)" fill="#fff"/>
            <path id="Path_33971" data-name="Path 33971" d="M151.4,132.268a13.712,13.712,0,0,0,1.579-1.515,9.389,9.389,0,0,0,.673-.846c.218-.292.4-.606.614-.921a3.631,3.631,0,0,1-.364,1.072,4.468,4.468,0,0,1-.642.941,4.739,4.739,0,0,1-.848.759,3.484,3.484,0,0,1-1.011.508" transform="translate(-94.771 -80.74)" fill="#abbac2"/>
            <path id="Path_33972" data-name="Path 33972" d="M119.982,65.822l1.976.4,1.97.415,3.94.821c1.312.277,2.628.528,3.945.776s2.64.465,3.979.581c-.336,0-.673,0-1.01-.006l-1.009-.058c-.67-.068-1.339-.14-2.006-.233-1.334-.182-2.658-.424-3.976-.694s-2.628-.569-3.929-.908-2.6-.685-3.882-1.093" transform="translate(-75.104 -41.202)" fill="#abbac2"/>
            <path id="Path_33973" data-name="Path 33973" d="M118.737,74.116l1.976.4,1.97.415,3.94.821c1.312.277,2.629.528,3.946.776s2.64.465,3.979.581c-.336,0-.673,0-1.01-.006l-1.009-.058c-.67-.068-1.339-.14-2.006-.233-1.334-.182-2.658-.424-3.976-.694s-2.628-.569-3.93-.908-2.6-.685-3.881-1.093" transform="translate(-74.324 -46.394)" fill="#abbac2"/>
            <path id="Path_33974" data-name="Path 33974" d="M117.492,82.41l1.976.4,1.97.415,3.94.821c1.312.277,2.629.528,3.946.776s2.64.465,3.979.581c-.336,0-.673,0-1.01-.006l-1.009-.058c-.67-.068-1.339-.14-2.006-.233-1.334-.182-2.658-.424-3.976-.694s-2.628-.569-3.93-.907-2.6-.685-3.881-1.094" transform="translate(-73.545 -51.585)" fill="#abbac2"/>
            <path id="Path_33975" data-name="Path 33975" d="M116.246,90.7l1.976.4,1.97.415,3.94.821c1.312.277,2.628.528,3.945.776s2.64.465,3.979.581c-.336,0-.673,0-1.01-.006l-1.009-.058c-.67-.068-1.339-.14-2.006-.233-1.334-.182-2.658-.424-3.976-.694s-2.628-.569-3.929-.908-2.6-.685-3.882-1.093" transform="translate(-72.765 -56.777)" fill="#abbac2"/>
            <path id="Path_33976" data-name="Path 33976" d="M115,99l1.976.4,1.97.415,3.94.821c1.312.277,2.628.528,3.945.776s2.64.465,3.979.581c-.336,0-.673,0-1.01-.006l-1.009-.058c-.67-.068-1.339-.14-2.006-.233-1.334-.182-2.658-.424-3.976-.694s-2.628-.569-3.929-.908S116.283,99.407,115,99" transform="translate(-71.986 -61.969)" fill="#abbac2"/>
            <path id="Path_33977" data-name="Path 33977" d="M113.756,107.292l1.976.4,1.97.415,3.94.82c1.312.278,2.628.529,3.945.777s2.64.465,3.979.581c-.336,0-.673,0-1.01-.006l-1.009-.058c-.67-.068-1.339-.14-2.006-.233-1.334-.182-2.658-.424-3.976-.694s-2.628-.569-3.929-.908-2.6-.685-3.882-1.093" transform="translate(-71.206 -67.16)" fill="#abbac2"/>
            <path id="Path_33978" data-name="Path 33978" d="M112.51,115.586l1.976.4,1.97.415,3.94.82c1.312.278,2.628.529,3.945.776s2.64.465,3.979.581c-.336,0-.673,0-1.01-.006l-1.009-.058c-.67-.068-1.339-.14-2.006-.233-1.334-.182-2.658-.424-3.976-.694s-2.628-.569-3.929-.908-2.6-.685-3.882-1.093" transform="translate(-70.427 -72.352)" fill="#abbac2"/>
            <path id="Path_33979" data-name="Path 33979" d="M348.8,182.909s7.021-6.395,6.077-9.586.671-6.725-1.507-10.575-3.17-3.2-8.292-4.123-5.911-3.716-10.449-.227c-4.449,3.422-3.487,5.559,2.135,6.062,3.365.3,7.507-.671,7.894,5.445a29.092,29.092,0,0,0,4.142,13" transform="translate(-207.713 -98.082)" fill="#7fc991"/>
            <path id="Path_33980" data-name="Path 33980" d="M384.017,241.13c-1.7-1.246.44-6.121,3.711-8.458,2.26-1.614,4.167.2,7.418-1.864,2.3-1.456,2.362-3,4.065-3.17,2.012-.2,2.534,1.9,5.582,2.9,2.934.959,3.86-.527,5.63.456,3.245,1.8,4.8,9.392,2.456,11.381-1.437,1.217-4.083-3.274-7.644-2.263-1.774.5-1.88,1.781-3.62,2.011-2.437.322-3.381-2.032-5.819-2.744-4.711-1.376-9.881,3.147-11.78,1.754" transform="translate(-240.004 -142.483)" fill="#7fc991"/>
            <path id="Path_33981" data-name="Path 33981" d="M341.645,282.053q2-6.784,4.591-13.382c.849-2.2,1.786-4.37,2.763-6.518s2.033-4.265,3.194-6.325A33.379,33.379,0,0,1,356.238,250l1.21-1.3c.415-.422.864-.811,1.294-1.218.221-.2.426-.412.66-.594l.7-.554a16.807,16.807,0,0,1,1.425-1.06,25.146,25.146,0,0,1,6.308-3.216,19.539,19.539,0,0,1,6.961-1.106,19.449,19.449,0,0,0-6.9,1.279,24.989,24.989,0,0,0-6.2,3.278,16.617,16.617,0,0,0-1.394,1.07l-.685.552c-.23.181-.432.4-.65.591-.424.405-.866.791-1.275,1.211l-1.192,1.294a33.1,33.1,0,0,0-3.976,5.786c-1.163,2.042-2.228,4.143-3.21,6.282s-1.915,4.3-2.8,6.483-1.739,4.379-2.54,6.6-1.593,4.437-2.316,6.68" transform="translate(-213.855 -150.816)" fill="#40635b"/>
            <path id="Path_33982" data-name="Path 33982" d="M353.93,226.477c1.083-3.9,2.213-7.786,3.353-11.669l3.461-11.636c1.169-3.873,2.331-7.749,3.394-11.65a58.446,58.446,0,0,0,1.351-5.9,12.992,12.992,0,0,0,.193-3.005,4.971,4.971,0,0,0-.347-1.458,4.013,4.013,0,0,0-.839-1.247,4.046,4.046,0,0,1,.891,1.224,5.044,5.044,0,0,1,.395,1.471,13.14,13.14,0,0,1-.11,3.042,58.121,58.121,0,0,1-1.254,5.949c-1.008,3.924-2.173,7.8-3.315,11.684l-3.544,11.611c-1.2,3.866-2.4,7.731-3.627,11.586" transform="translate(-221.545 -112.616)" fill="#40635b"/>
            <path id="Path_33983" data-name="Path 33983" d="M358,290.4s.316-7.925,2.9-8.951,4.068-3.909,7.718-4.465,3.733.432,6.983,3.316,5.488,1.963,5.538,6.742c.049,4.685-1.85,5.155-5.079,1.724-1.933-2.053-3.432-5.273-7.645-2.373A24,24,0,0,1,358,290.4" transform="translate(-224.093 -173.291)" fill="#7fc991"/>
            <path id="Path_33984" data-name="Path 33984" d="M344.362,312.086q.755-3.351,1.838-6.621a57.712,57.712,0,0,1,2.548-6.392,35.07,35.07,0,0,1,3.534-5.91c.332-.47.721-.9,1.1-1.333a16.888,16.888,0,0,1,1.2-1.243c.1-.1.2-.2.311-.3l.335-.272.669-.543c.453-.352.955-.637,1.431-.952l-.691.51a6.989,6.989,0,0,0-.679.52l-.637.571-.318.285c-.1.1-.2.208-.293.311-.386.419-.8.81-1.145,1.266s-.728.875-1.044,1.35a37.243,37.243,0,0,0-3.428,5.9,64.611,64.611,0,0,0-2.615,6.325l-.566,1.617-.532,1.63-.516,1.636Z" transform="translate(-215.556 -180.603)" fill="#40635b"/>
            <rect id="Rectangle_19332" data-name="Rectangle 19332" width="11.944" height="10.41" transform="translate(80.106 21.458)" fill="#94c8e3"/>
            <path id="Path_33985" data-name="Path 33985" d="M224.765,53.382H208.84V42.649a29.327,29.327,0,0,1,15.925,0Z" transform="translate(-130.725 -26.007)" fill="#4c649e"/>
            <path id="Path_33986" data-name="Path 33986" d="M211.525,46.235a16.225,16.225,0,0,0,1.7.362c.571.1,1.145.179,1.722.229a33.306,33.306,0,0,0,3.466.144c.578-.022,1.157-.022,1.734-.074l.866-.06c.288-.034.576-.063.864-.09,1.154-.117,2.3-.321,3.449-.512-.559.165-1.122.323-1.689.465-.573.11-1.142.255-1.722.333a24.653,24.653,0,0,1-3.5.312,22.708,22.708,0,0,1-3.506-.233,14.6,14.6,0,0,1-3.392-.876" transform="translate(-132.406 -28.941)" fill="#94c8e3"/>
            <path id="Path_33987" data-name="Path 33987" d="M211.146,51.383c.09,1.2.106,2.389.148,3.577.014.594.04,1.187.072,1.779a16.508,16.508,0,0,0,.173,1.776,6.748,6.748,0,0,1-.463-1.746,15.26,15.26,0,0,1-.155-1.8,18.361,18.361,0,0,1,.225-3.589" transform="translate(-132.023 -32.164)" fill="#94c8e3"/>
            <path id="Path_33988" data-name="Path 33988" d="M216.981,52.464c.136,1.127.171,2.25.2,3.372l.027,1.682.016.84a3.365,3.365,0,0,0,.088.832,4.827,4.827,0,0,1-.395-1.654c-.065-.563-.093-1.128-.109-1.692a21.363,21.363,0,0,1,.17-3.381" transform="translate(-135.712 -32.84)" fill="#94c8e3"/>
            <path id="Path_33989" data-name="Path 33989" d="M223.381,53.5c.1,1.007.119,2,.163,3,.015.5.039.992.068,1.487a14.387,14.387,0,0,0,.149,1.488,5.188,5.188,0,0,1-.439-1.453,11.253,11.253,0,0,1-.152-1.508,13.332,13.332,0,0,1,.211-3.011" transform="translate(-139.689 -33.486)" fill="#94c8e3"/>
            <path id="Path_33990" data-name="Path 33990" d="M247.276,51.383a18.361,18.361,0,0,1,.225,3.589,15.179,15.179,0,0,1-.155,1.8,6.746,6.746,0,0,1-.463,1.746,16.5,16.5,0,0,0,.173-1.776c.032-.592.058-1.185.072-1.779.042-1.188.059-2.377.148-3.577" transform="translate(-154.538 -32.164)" fill="#94c8e3"/>
            <path id="Path_33991" data-name="Path 33991" d="M241.637,52.464a21.361,21.361,0,0,1,.17,3.381c-.016.564-.044,1.129-.109,1.692a4.827,4.827,0,0,1-.395,1.654,3.364,3.364,0,0,0,.088-.832l.016-.84.027-1.682c.033-1.122.068-2.245.2-3.372" transform="translate(-151.046 -32.84)" fill="#94c8e3"/>
            <path id="Path_33992" data-name="Path 33992" d="M235.085,53.5a13.332,13.332,0,0,1,.211,3.011,11.251,11.251,0,0,1-.152,1.508,5.188,5.188,0,0,1-.439,1.453,14.387,14.387,0,0,0,.149-1.488c.029-.495.053-.99.068-1.487.044-.994.065-1.99.163-3" transform="translate(-146.916 -33.486)" fill="#94c8e3"/>
            <path id="Path_33993" data-name="Path 33993" d="M229.525,53.5a19.092,19.092,0,0,1,.192,2.989c-.007.5-.021,1-.063,1.5a7.192,7.192,0,0,1-.24,1.486c0-.5-.045-1-.052-1.494s-.019-.994-.019-1.491a23.929,23.929,0,0,1,.182-2.987" transform="translate(-143.559 -33.486)" fill="#94c8e3"/>
            <g id="Group_35748" data-name="Group 35748" transform="translate(41.684 137.331)" opacity="0.11">
              <g id="Group_35747" data-name="Group 35747">
                <g id="Group_35746" data-name="Group 35746" clip-path="url(#clip-path-8)">
                  <path id="Path_33994" data-name="Path 33994" d="M204.8,368.1c0,.522-20.9.945-46.677.945s-46.677-.423-46.677-.945,20.9-.945,46.677-.945,46.677.423,46.677.945" transform="translate(-111.443 -367.154)" fill="#344c82"/>
                </g>
              </g>
            </g>
            <path id="Path_33995" data-name="Path 33995" d="M152.337,192.454A47.959,47.959,0,1,1,200.3,144.5a47.959,47.959,0,0,1-47.959,47.959" transform="translate(-65.336 -60.428)" fill="#f3f8fa"/>
            <path id="Path_33996" data-name="Path 33996" d="M230.614,158.136a18.1,18.1,0,1,1,18.1-18.1,18.1,18.1,0,0,1-18.1,18.1" transform="translate(-133.025 -76.328)" fill="#fff"/>
            <path id="Path_33997" data-name="Path 33997" d="M108.283,302.419s-8.481,24.436-5.9,25.135,20.977-14.772,20.977-14.772Z" transform="translate(-63.78 -189.302)" fill="#4c649e"/>
            <path id="Path_33998" data-name="Path 33998" d="M320.164,302.419s8.481,24.436,5.9,25.135-20.977-14.772-20.977-14.772Z" transform="translate(-190.974 -189.302)" fill="#4c649e"/>
            <path id="Path_33999" data-name="Path 33999" d="M142.694,81.132a53.721,53.721,0,1,0,53.721,53.721,53.721,53.721,0,0,0-53.721-53.721m0,101.68a47.959,47.959,0,1,1,47.959-47.959,47.959,47.959,0,0,1-47.959,47.959" transform="translate(-55.693 -50.785)" fill="#4c649e"/>
            <g id="Group_35751" data-name="Group 35751" transform="translate(85.132 58.074)" opacity="0.23" style="mix-blend-mode: multiply;isolation: isolate">
              <g id="Group_35750" data-name="Group 35750">
                <g id="Group_35749" data-name="Group 35749" clip-path="url(#clip-path-9)">
                  <path id="Path_34000" data-name="Path 34000" d="M227.6,183.513h3.183l-1.592-28.253Z" transform="translate(-227.601 -155.26)" fill="#94c8e3"/>
                </g>
              </g>
            </g>
            <path id="Path_34001" data-name="Path 34001" d="M226.341,181.781h3.183l-1.592-28.253Z" transform="translate(-141.68 -96.102)" fill="#94c8e3"/>
            <g id="Group_35754" data-name="Group 35754" transform="translate(85.229 58.248)" opacity="0.23" style="mix-blend-mode: multiply;isolation: isolate">
              <g id="Group_35753" data-name="Group 35753">
                <g id="Group_35752" data-name="Group 35752" clip-path="url(#clip-path-10)">
                  <path id="Path_34002" data-name="Path 34002" d="M227.859,182.987l2.409,2.082,23.252-29.344Z" transform="translate(-227.86 -155.726)" fill="#94c8e3"/>
                </g>
              </g>
            </g>
            <path id="Path_34003" data-name="Path 34003" d="M226.6,181.256l2.409,2.082,23.253-29.344Z" transform="translate(-141.842 -96.394)" fill="#94c8e3"/>
            <g id="Group_35757" data-name="Group 35757" transform="translate(82.273 80.847)" opacity="0.23" style="mix-blend-mode: multiply;isolation: isolate">
              <g id="Group_35756" data-name="Group 35756">
                <g id="Group_35755" data-name="Group 35755" clip-path="url(#clip-path-11)">
                  <path id="Path_34004" data-name="Path 34004" d="M227.916,220.123a3.979,3.979,0,1,1-3.979-3.979,3.979,3.979,0,0,1,3.979,3.979" transform="translate(-219.958 -216.144)" fill="#94c8e3"/>
                </g>
              </g>
            </g>
            <g id="Group_35760" data-name="Group 35760" transform="translate(82.273 82.358)" opacity="0.23" style="mix-blend-mode: multiply;isolation: isolate">
              <g id="Group_35759" data-name="Group 35759">
                <g id="Group_35758" data-name="Group 35758" clip-path="url(#clip-path-12)">
                  <path id="Path_34005" data-name="Path 34005" d="M227.916,224.163a3.979,3.979,0,1,1-3.979-3.979,3.979,3.979,0,0,1,3.979,3.979" transform="translate(-219.958 -220.184)" fill="#94c8e3"/>
                </g>
              </g>
            </g>
            <path id="Path_34006" data-name="Path 34006" d="M227.916,222.4a3.979,3.979,0,1,1-3.979-3.979,3.979,3.979,0,0,1,3.979,3.979" transform="translate(-137.684 -136.724)" fill="#94c8e3"/>
            <g id="Group_35763" data-name="Group 35763" transform="translate(84.399 84.446)" opacity="0.23" style="mix-blend-mode: multiply;isolation: isolate">
              <g id="Group_35762" data-name="Group 35762">
                <g id="Group_35761" data-name="Group 35761" clip-path="url(#clip-path-13)">
                  <path id="Path_34007" data-name="Path 34007" d="M225.72,228.208a1.923,1.923,0,0,0,2.289,1.279,2.061,2.061,0,0,0,1.01-3.03,1.9,1.9,0,0,0-2.222-.539,1.918,1.918,0,0,0-1.077,2.289" transform="translate(-225.641 -225.765)" fill="#94c8e3"/>
                </g>
              </g>
            </g>
            <path id="Path_34008" data-name="Path 34008" d="M231.657,103.206a3.718,3.718,0,0,1,.439,1.146,5.475,5.475,0,0,1,.122,1.146,5.375,5.375,0,0,1-.12,1.146,3.68,3.68,0,0,1-.441,1.146,3.69,3.69,0,0,1-.441-1.146,5.4,5.4,0,0,1-.12-1.146,5.474,5.474,0,0,1,.122-1.146,3.718,3.718,0,0,1,.439-1.146" transform="translate(-144.656 -64.603)" fill="#94c8e3"/>
            <path id="Path_34009" data-name="Path 34009" d="M171.821,119.491a3.721,3.721,0,0,1,.954.773,5.457,5.457,0,0,1,.678.932,5.37,5.37,0,0,1,.469,1.053,3.679,3.679,0,0,1,.191,1.213,3.678,3.678,0,0,1-.955-.772,5.38,5.38,0,0,1-.677-.932,5.471,5.471,0,0,1-.468-1.053,3.727,3.727,0,0,1-.192-1.212" transform="translate(-107.552 -74.796)" fill="#94c8e3"/>
            <path id="Path_34010" data-name="Path 34010" d="M127.333,163.979a3.728,3.728,0,0,1,1.212.192,5.47,5.47,0,0,1,1.053.468,5.413,5.413,0,0,1,.932.677,3.687,3.687,0,0,1,.772.955,3.679,3.679,0,0,1-1.213-.191,5.37,5.37,0,0,1-1.053-.469,5.475,5.475,0,0,1-.932-.678,3.721,3.721,0,0,1-.773-.954" transform="translate(-79.705 -102.643)" fill="#94c8e3"/>
            <path id="Path_34011" data-name="Path 34011" d="M111.049,223.815a3.724,3.724,0,0,1,1.146-.44,5.475,5.475,0,0,1,1.146-.121,5.4,5.4,0,0,1,1.146.12,3.687,3.687,0,0,1,1.146.441,3.677,3.677,0,0,1-1.146.441,5.352,5.352,0,0,1-1.146.12,5.45,5.45,0,0,1-1.146-.121,3.713,3.713,0,0,1-1.146-.44" transform="translate(-69.512 -139.748)" fill="#94c8e3"/>
            <path id="Path_34012" data-name="Path 34012" d="M127.333,281.69a3.721,3.721,0,0,1,.773-.954,5.474,5.474,0,0,1,.932-.678,5.371,5.371,0,0,1,1.053-.469,3.679,3.679,0,0,1,1.213-.191,3.678,3.678,0,0,1-.772.955,5.378,5.378,0,0,1-.932.677,5.474,5.474,0,0,1-1.053.468,3.729,3.729,0,0,1-1.212.192" transform="translate(-79.705 -174.891)" fill="#94c8e3"/>
            <path id="Path_34013" data-name="Path 34013" d="M171.821,323.373a3.727,3.727,0,0,1,.192-1.212,5.469,5.469,0,0,1,.468-1.053,5.392,5.392,0,0,1,.677-.932,3.677,3.677,0,0,1,.955-.772,3.678,3.678,0,0,1-.191,1.213,5.369,5.369,0,0,1-.469,1.053,5.457,5.457,0,0,1-.678.932,3.73,3.73,0,0,1-.954.773" transform="translate(-107.552 -199.933)" fill="#94c8e3"/>
            <path id="Path_34014" data-name="Path 34014" d="M231.657,338.629a3.719,3.719,0,0,1-.439-1.146,5.474,5.474,0,0,1-.122-1.146,5.4,5.4,0,0,1,.12-1.146,3.69,3.69,0,0,1,.441-1.146,3.679,3.679,0,0,1,.441,1.146,5.375,5.375,0,0,1,.12,1.146,5.475,5.475,0,0,1-.122,1.146,3.719,3.719,0,0,1-.439,1.146" transform="translate(-144.656 -209.098)" fill="#94c8e3"/>
            <path id="Path_34015" data-name="Path 34015" d="M289.532,323.373a3.73,3.73,0,0,1-.954-.773,5.475,5.475,0,0,1-.678-.932,5.37,5.37,0,0,1-.469-1.053,3.678,3.678,0,0,1-.191-1.213,3.685,3.685,0,0,1,.955.772,5.408,5.408,0,0,1,.677.932,5.47,5.47,0,0,1,.468,1.053,3.727,3.727,0,0,1,.192,1.212" transform="translate(-179.8 -199.933)" fill="#94c8e3"/>
            <path id="Path_34016" data-name="Path 34016" d="M331.215,281.69A3.728,3.728,0,0,1,330,281.5a5.473,5.473,0,0,1-1.053-.468,5.362,5.362,0,0,1-.932-.677,3.677,3.677,0,0,1-.772-.955,3.679,3.679,0,0,1,1.213.191,5.372,5.372,0,0,1,1.053.469,5.474,5.474,0,0,1,.932.678,3.722,3.722,0,0,1,.773.954" transform="translate(-204.842 -174.891)" fill="#94c8e3"/>
            <path id="Path_34017" data-name="Path 34017" d="M346.472,223.815a3.718,3.718,0,0,1-1.146.44,5.45,5.45,0,0,1-1.146.121,5.352,5.352,0,0,1-1.146-.12,3.681,3.681,0,0,1-1.146-.441,3.691,3.691,0,0,1,1.146-.441,5.4,5.4,0,0,1,1.146-.12,5.475,5.475,0,0,1,1.146.121,3.729,3.729,0,0,1,1.146.44" transform="translate(-214.008 -139.748)" fill="#94c8e3"/>
            <path id="Path_34018" data-name="Path 34018" d="M331.215,163.979a3.721,3.721,0,0,1-.773.954,5.474,5.474,0,0,1-.932.678,5.37,5.37,0,0,1-1.053.469,3.679,3.679,0,0,1-1.213.191,3.686,3.686,0,0,1,.772-.955,5.4,5.4,0,0,1,.932-.677,5.469,5.469,0,0,1,1.053-.468,3.726,3.726,0,0,1,1.212-.192" transform="translate(-204.842 -102.643)" fill="#94c8e3"/>
            <path id="Path_34019" data-name="Path 34019" d="M289.532,119.491a3.727,3.727,0,0,1-.192,1.212,5.472,5.472,0,0,1-.468,1.053,5.4,5.4,0,0,1-.677.932,3.686,3.686,0,0,1-.955.772,3.678,3.678,0,0,1,.191-1.213,5.371,5.371,0,0,1,.469-1.053,5.475,5.475,0,0,1,.678-.932,3.721,3.721,0,0,1,.954-.773" transform="translate(-179.8 -74.796)" fill="#94c8e3"/>
            <g id="Group_35766" data-name="Group 35766" transform="translate(39.042 36.109)" opacity="0.23" style="mix-blend-mode: multiply;isolation: isolate">
              <g id="Group_35765" data-name="Group 35765">
                <g id="Group_35764" data-name="Group 35764" clip-path="url(#clip-path-14)">
                  <path id="Path_34020" data-name="Path 34020" d="M152.337,99.025a47.959,47.959,0,0,1,47.941,46.665c.011-.4.018-.8.018-1.2a47.959,47.959,0,0,0-95.918,0c0,.4.007.8.018,1.2a47.959,47.959,0,0,1,47.941-46.665" transform="translate(-104.378 -96.536)" fill="#94c8e3"/>
                </g>
              </g>
            </g>
            <path id="Path_34021" data-name="Path 34021" d="M225.72,226.5a1.923,1.923,0,0,0,2.289,1.279,2.061,2.061,0,0,0,1.01-3.03,1.9,1.9,0,0,0-2.222-.539,1.918,1.918,0,0,0-1.077,2.289" transform="translate(-141.242 -140.249)" fill="#4c649e"/>
            <path id="Path_34022" data-name="Path 34022" d="M260.9,87.77a45.281,45.281,0,0,1,10.326,3.154,51.6,51.6,0,0,1,9.418,5.324,52.344,52.344,0,0,1,4.2,3.419,46.617,46.617,0,0,1,3.777,3.884,44.605,44.605,0,0,1,5.981,8.989,51.216,51.216,0,0,0-2.866-4.57,45.486,45.486,0,0,0-3.332-4.23,53.3,53.3,0,0,0-3.789-3.82,52.412,52.412,0,0,0-4.194-3.368,53.389,53.389,0,0,0-9.316-5.366,52.408,52.408,0,0,0-5.013-1.975,42.258,42.258,0,0,0-5.2-1.442" transform="translate(-163.314 -54.94)" fill="#94c8e3"/>
            <path id="Path_34023" data-name="Path 34023" d="M167.425,328.361a45.3,45.3,0,0,1-10.726-1.231,51.628,51.628,0,0,1-10.227-3.53,52.384,52.384,0,0,1-4.754-2.6,46.522,46.522,0,0,1-4.419-3.135,44.576,44.576,0,0,1-7.511-7.756,51.125,51.125,0,0,0,3.647,3.975,45.374,45.374,0,0,0,4.043,3.556,53.191,53.191,0,0,0,4.419,3.071,52.342,52.342,0,0,0,4.735,2.552,53.42,53.42,0,0,0,10.134,3.589,52.514,52.514,0,0,0,5.288,1.033,42.261,42.261,0,0,0,5.372.476" transform="translate(-81.241 -194.115)" fill="#94c8e3"/>
            <path id="Path_34024" data-name="Path 34024" d="M274.44,171.817c.139.135.187.116.277.25a4.337,4.337,0,0,0,1.774.972c.93.744,2.415,2.235,2.746.776.293-1.292.534-1.938.3-2.7-.014-.076-.566-.426-.612-.511a23.293,23.293,0,0,0-1.4-2.412c-.766-1.075-1.771-.471-1.609-.151a6.6,6.6,0,0,0,1.5.66,2.08,2.08,0,0,0-.833-.848c-.918-.681-1.921.053-1.144.55a7.8,7.8,0,0,0,.812.129.149.149,0,0,1,.086.05c.017.026-.376-.246-.59-.38-.965-.6-1.615.331-1.341.7.1.135.823-.079.94.037s-.765-.533-1.041-.332c-.7.513-.484,1.841-.284,2.17l.716-.672c-.034-.052.28.451.4.708.123.356.107.315-.049.186" transform="translate(-171.405 -104.899)" fill="#edbda3"/>
            <path id="Path_34025" data-name="Path 34025" d="M275.464,170.18a.961.961,0,0,1,.485.017,1.049,1.049,0,0,1,.435.245,1.472,1.472,0,0,1,.279.4,3.21,3.21,0,0,1,.2.432,3.21,3.21,0,0,1-.319-.352,3.209,3.209,0,0,0-.288-.345,1.684,1.684,0,0,0-.791-.4" transform="translate(-172.429 -106.511)" fill="#cc8972"/>
            <path id="Path_34026" data-name="Path 34026" d="M277.5,168.729a3.136,3.136,0,0,1,.467.085,1.847,1.847,0,0,1,.464.157,1.353,1.353,0,0,1,.318.376,2.019,2.019,0,0,1,.205.429c-.115-.111-.217-.229-.321-.343a2.646,2.646,0,0,0-.312-.31.862.862,0,0,0-.194-.084c-.071-.03-.143-.056-.212-.091a3.289,3.289,0,0,1-.416-.219" transform="translate(-173.701 -105.617)" fill="#cc8972"/>
            <path id="Path_34027" data-name="Path 34027" d="M279.878,167.676a2.519,2.519,0,0,1,.389.123c.124.049.245.107.361.161l.039.017.019.007a.236.236,0,0,1,.049.024.393.393,0,0,1,.085.092,1.012,1.012,0,0,1,.105.182,1.769,1.769,0,0,1,.142.385c-.093-.1-.175-.209-.255-.313l-.123-.147a.378.378,0,0,0-.055-.051s0,0,0,0l-.028-.009-.054-.02a2.271,2.271,0,0,1-.358-.2,2.093,2.093,0,0,1-.318-.257" transform="translate(-175.192 -104.958)" fill="#cc8972"/>
            <g id="Group_35769" data-name="Group 35769" transform="translate(117.789 150.309)" opacity="0.11">
              <g id="Group_35768" data-name="Group 35768">
                <g id="Group_35767" data-name="Group 35767" clip-path="url(#clip-path-15)">
                  <path id="Path_34028" data-name="Path 34028" d="M343.891,402.8c0,.522-6.488.945-14.492.945s-14.491-.423-14.491-.945,6.488-.945,14.491-.945,14.492.423,14.492.945" transform="translate(-314.908 -401.851)" fill="#344c82"/>
                </g>
              </g>
            </g>
            <path id="Path_34029" data-name="Path 34029" d="M370.619,282.485c-.074.666-.289,1.627-.445,2.393-.2.993-.707.964-.67.558.013-.15.308-2.481.343-2.624.03-.125-.119-.109-.173.392,0,0-.14.6-.241,1.125-.245,1.289-.708,1-.71.661,0-.126.169-2.184.172-2.309,0-.055-.053-.941-.084-1.19-.093-.419-.168-.474-.226-.256-.125,1.026-.346,1.677-.643,1.486-.244-.156-.064-1.237-.034-1.985a4.484,4.484,0,0,1,.688-1.861c.358-1,.992-2.526,1.924-1.574a6.812,6.812,0,0,1,1.558,2.717,1.733,1.733,0,0,1,.057.345,15.039,15.039,0,0,1-.044,2.133c-.08,1.173-.484,1.469-.51,1.151-.008-.1.1-1.944-.054-1.621-.022.66-.258,1.451-.347,2.216-.117,1.01-.6.93-.6.521,0-.15.179-2,.183-2.144,0-.028.009-.214-.074-.225-.038-.005-.065.046-.071.092" transform="translate(-230.237 -173.39)" fill="#edbda3"/>
            <path id="Path_34030" data-name="Path 34030" d="M283.69,177.027l9.666,8.076-1.18-.641,9.14,2.187-1.012,7.259-9.331-4.414-.754-.18-.426-.46-8.556-9.243Z" transform="translate(-176.041 -110.811)" fill="#fcc858"/>
            <path id="Path_34031" data-name="Path 34031" d="M344.759,268.759a174.787,174.787,0,0,1,3.988,24.684s-2.929,2.456-5.677,2.847c0,0-4.755-10.569-8.407-20.7Z" transform="translate(-209.485 -168.232)" fill="#233561"/>
            <path id="Path_34032" data-name="Path 34032" d="M330.474,270.469a162.515,162.515,0,0,1-7.873,24.493,14.743,14.743,0,0,1-5.977-.339s1-16.307,2.7-27.724Z" transform="translate(-198.193 -167.068)" fill="#233561"/>
            <path id="Path_34033" data-name="Path 34033" d="M333.886,189.183c.747-.49.452-2.2.386-3.117l4.431-3.4c.017.116.02,3.668.038,3.786.254,1.638,3.1,3.433,3.388,3.594,1.733.971-.781,9.787-9.57,4.949-.038-.019-.074-.041-.111-.064-1.761-1-.07-4.761,1.437-5.748" transform="translate(-207.629 -114.341)" fill="#edbda3"/>
            <path id="Path_34034" data-name="Path 34034" d="M321.482,207.74c.04-.754.33-5.354,3.056-7.255a20.078,20.078,0,0,1,2.885-1.494,1.754,1.754,0,0,0,1.945,1.52c3.4.055,4.3-2.177,4.3-2.177,2.229,1.752,2.918,1.522,3.581,2.1,2.106,1.835,3.574,2.7.859,9.673l-1.716,8.149.858,7.292c-7.651,3.633-12.534,3.482-15.213.082a138.425,138.425,0,0,1-.557-17.889" transform="translate(-201.167 -124.149)" fill="#fcc858"/>
            <path id="Path_34035" data-name="Path 34035" d="M341.04,205.125l-2.566,2.807-1.607-2.764Z" transform="translate(-210.865 -128.4)" fill="#fff"/>
            <path id="Path_34036" data-name="Path 34036" d="M340.733,204.64s-.92,1.48-2.276-.183l1.259-.364Z" transform="translate(-211.86 -127.754)" fill="#233561"/>
            <path id="Path_34037" data-name="Path 34037" d="M378.291,282.134l.041-.2c-.017.088-.031.154-.041.2" transform="translate(-236.794 -176.476)" fill="#fcc858"/>
            <path id="Path_34038" data-name="Path 34038" d="M378.226,282.8h0" transform="translate(-236.753 -177.018)" fill="#fcc858"/>
            <path id="Path_34039" data-name="Path 34039" d="M378.227,282.71l.01-.051-.01.051" transform="translate(-236.754 -176.933)" fill="#fcc858"/>
            <path id="Path_34040" data-name="Path 34040" d="M378.4,281.719c.007-.038.016-.08.025-.126l-.025.126" transform="translate(-236.863 -176.265)" fill="#fcc858"/>
            <path id="Path_34041" data-name="Path 34041" d="M378.255,282.544c0-.018.008-.041.014-.069-.006.027-.01.05-.014.069" transform="translate(-236.772 -176.818)" fill="#fcc858"/>
            <path id="Path_34042" data-name="Path 34042" d="M378.468,281.459l.016-.08-.016.08" transform="translate(-236.905 -176.131)" fill="#fcc858"/>
            <path id="Path_34043" data-name="Path 34043" d="M367.287,218.592c-.956-2.405-2.429-7.8-4.315-11.926-1.741-3.81-6.765-6.317-4.959,1.976a55.4,55.4,0,0,0,4.373,11.251l-.311,12.146c.843.069,3.447-.068,3.447-.068.429-2.145,1.765-13.379,1.765-13.379" transform="translate(-223.86 -127.141)" fill="#fcc858"/>
            <path id="Path_34044" data-name="Path 34044" d="M378.679,280.4c0,.022-.01.049-.016.081.005-.026.01-.053.016-.081" transform="translate(-237.027 -175.519)" fill="#fcc858"/>
            <path id="Path_34045" data-name="Path 34045" d="M378.511,281c.014-.069.029-.143.046-.229l-.046.229" transform="translate(-236.932 -175.748)" fill="#fcc858"/>
            <path id="Path_34046" data-name="Path 34046" d="M378.717,280.263l-.01.051.01-.051" transform="translate(-237.055 -175.433)" fill="#fcc858"/>
            <path id="Path_34047" data-name="Path 34047" d="M369.084,279.759s2.665-.2,3.739-.43c0,0,.234,1.085-.186,1.476s-3.017.551-3.337.208c-.289-.31-.216-1.253-.216-1.253" transform="translate(-231.026 -174.848)" fill="#f2f2f2"/>
            <path id="Path_34048" data-name="Path 34048" d="M370.079,281.905a.167.167,0,1,0-.089-.218.167.167,0,0,0,.089.218" transform="translate(-231.59 -176.261)" fill="#fcc858"/>
            <path id="Path_34049" data-name="Path 34049" d="M284.163,176.48s-2.159,2.321-2.906,3.39c0,0-1.079-.756-1.028-1.434s2.181-2.912,2.736-2.872c.5.037,1.2.916,1.2.916" transform="translate(-175.411 -109.895)" fill="#f2f2f2"/>
            <path id="Path_34050" data-name="Path 34050" d="M282.233,183.234a.2.2,0,1,0,.253.119.2.2,0,0,0-.253-.119" transform="translate(-176.585 -114.69)" fill="#fcc858"/>
            <path id="Path_34051" data-name="Path 34051" d="M336.951,303.775c-.2-.288-.372-.585-.553-.88s-.346-.6-.515-.9c-.329-.607-.651-1.217-.95-1.839l.078.079a29.081,29.081,0,0,1-2.7-1.63,29.075,29.075,0,0,1,2.867,1.307l.05.025.028.054c.319.612.615,1.235.9,1.861.14.316.281.631.413.951s.26.641.374.97" transform="translate(-208.015 -186.915)" fill="#0d1017"/>
            <path id="Path_34052" data-name="Path 34052" d="M367.257,347.342l-10.308-14.065,4.034-5.206s3.6,2.975,4.9,5.952c2.6,5.967,4.14,9.2,5.047,10.96a12.142,12.142,0,0,1-3.669,2.359" transform="translate(-223.435 -205.359)" fill="#233561"/>
            <path id="Path_34053" data-name="Path 34053" d="M386.29,378.078l-1.783-2.433a12.132,12.132,0,0,0,3.669-2.358c1.028,1.991,1.238,2.076,1.238,2.076a4.958,4.958,0,0,1-3.125,2.715" transform="translate(-240.685 -233.662)" fill="#edbda3"/>
            <path id="Path_34054" data-name="Path 34054" d="M311.906,356.317l1.916-18.876,5.984-.753s.308,7.773-.71,10.856c-1.478,4.479-2.328,7.384-2.815,9.266a19.522,19.522,0,0,1-4.376-.493" transform="translate(-195.24 -210.753)" fill="#233561"/>
            <path id="Path_34055" data-name="Path 34055" d="M315.122,392.321a3.992,3.992,0,0,1-4.144.267l.347-3.422a19.525,19.525,0,0,0,4.376.493c-.6,2.549-.579,2.662-.579,2.662" transform="translate(-194.659 -243.602)" fill="#edbda3"/>
            <path id="Path_34056" data-name="Path 34056" d="M334.5,165.161a3.534,3.534,0,0,0-1.647,2.889,26.966,26.966,0,0,1-.573,2.876c-.294,2.973,1.532,4.953,2.236,4.978a5.5,5.5,0,0,0,3.924-1.586c1.544-1.473,2.471-6.481,1.262-8.128-1.624-2.212-4.38-2.021-5.2-1.03" transform="translate(-207.974 -102.941)" fill="#edbda3"/>
            <path id="Path_34057" data-name="Path 34057" d="M332.242,183.66a1.841,1.841,0,0,0,1.417-.031c.609-.193,1.517-.834,1.712-.428.885,1.842.851,4.085-.734,4.359s-2.616-3.232-2.395-3.9" transform="translate(-207.951 -114.594)" fill="#233561"/>
            <path id="Path_34058" data-name="Path 34058" d="M339.707,169.3a15.833,15.833,0,0,1-.134-2.951.758.758,0,0,0-.343-.079,1.467,1.467,0,0,1-1.363-1.411,15.36,15.36,0,0,1-2.908-.255c-1.889-.372-1.394-2.518-1.356-2.528.5-.127,4.548-.764,6.854.739,2.264,1.476,1.172,5.087.97,5.691a.132.132,0,0,1-.123.09l-1.456.822a.136.136,0,0,1-.14-.118" transform="translate(-208.768 -101.299)" fill="#233561"/>
            <path id="Path_34059" data-name="Path 34059" d="M354,166.932s1.791,1,.379,4.465c0,0-1.164-1.143-.379-4.465" transform="translate(-221.419 -104.492)" fill="#233561"/>
            <path id="Path_34060" data-name="Path 34060" d="M331.6,174.914a9.359,9.359,0,0,1-1.729,2.364c-.341.313.69,1.338,1.14,1.383,1,.1.588-3.747.588-3.747" transform="translate(-206.446 -109.489)" fill="#edbda3"/>
            <path id="Path_34061" data-name="Path 34061" d="M351.049,179.315c-.463.811-1.3,1.164-1.878.79a1.628,1.628,0,0,1-.2-2.145c.464-.811,1.3-1.164,1.877-.79a1.628,1.628,0,0,1,.2,2.145" transform="translate(-218.256 -110.807)" fill="#edbda3"/>
            <path id="Path_34062" data-name="Path 34062" d="M343.131,188.455a2.805,2.805,0,0,1-.494,1.012,3.166,3.166,0,0,1-.831.779,3.336,3.336,0,0,1-1.047.446,4.367,4.367,0,0,1-.558.1c-.188.012-.377.012-.563.009a6.844,6.844,0,0,0,1.082-.244,4.157,4.157,0,0,0,.985-.464,3.845,3.845,0,0,0,.822-.713,3.944,3.944,0,0,0,.606-.922" transform="translate(-212.599 -117.965)" fill="#cc8972"/>
            <path id="Path_34063" data-name="Path 34063" d="M336.165,185.378a1.261,1.261,0,0,1-.617.65,1.071,1.071,0,0,1-.894.035,2.818,2.818,0,0,0,.426-.063,1.784,1.784,0,0,0,.386-.14,3.236,3.236,0,0,0,.7-.481" transform="translate(-209.479 -116.039)" fill="#edbda3"/>
            <path id="Path_34064" data-name="Path 34064" d="M336.193,177.662c-.01.16.069.294.175.3s.2-.118.21-.278-.069-.294-.176-.3-.2.118-.209.278" transform="translate(-210.442 -111.035)" fill="#233561"/>
            <path id="Path_34065" data-name="Path 34065" d="M351.909,178.585a.954.954,0,0,0-.59.141.638.638,0,0,0-.191.213,1.044,1.044,0,0,0-.1.272l-.055-.105a1.156,1.156,0,0,1,.277.155.355.355,0,0,1,.161.333.319.319,0,0,1-.1.167l-.11.1a1.4,1.4,0,0,1-.119.093.47.47,0,0,1-.162.086l.058-.057a.718.718,0,0,0,.151.572.526.526,0,0,1-.212-.25.838.838,0,0,1-.065-.333l.058-.057c-.007,0,.055-.045.081-.073l.1-.1c.066-.068.148-.141.144-.182.013-.039-.033-.1-.1-.153a1.059,1.059,0,0,0-.228-.132l-.006,0a.087.087,0,0,1-.049-.1,1.022,1.022,0,0,1,.143-.318.683.683,0,0,1,.263-.233.819.819,0,0,1,.655-.033" transform="translate(-219.615 -111.754)" fill="#cc8972"/>
            <path id="Path_34066" data-name="Path 34066" d="M337.317,174.945c.087-.111.042-.466-.427-.683a.683.683,0,0,0-.532-.03.2.2,0,0,0-.075.229c.056.146.275.093.552.282.2.136.12.169.318.232a.152.152,0,0,0,.164-.031" transform="translate(-210.492 -109.038)" fill="#233561"/>
            <path id="Path_34067" data-name="Path 34067" d="M345.39,194.944s-1.575,2.679-3.566,3.422a24.048,24.048,0,0,1,2.2,1.272,28.308,28.308,0,0,0,2.9-3.079,2.155,2.155,0,0,0-1.538-1.615" transform="translate(-213.967 -122.027)" fill="#fff"/>
            <path id="Path_34068" data-name="Path 34068" d="M336.635,198.459l-.279.978,1.48,1.13s-1.191.527-1.736.861a3.041,3.041,0,0,1-.646-1.893,1.729,1.729,0,0,1,1.181-1.075" transform="translate(-209.98 -124.227)" fill="#fff"/>
            <path id="Path_34069" data-name="Path 34069" d="M342.391,162.191s-.943-1.49-5.664-2.333c0,0-.783,2.235,5.664,2.333" transform="translate(-210.758 -100.064)" fill="#233561"/>
            <path id="Path_34070" data-name="Path 34070" d="M347.37,162.382s-.89-1.215-3.722-2.023c0,0-.211,1.563,3.722,2.023" transform="translate(-215.108 -100.378)" fill="#233561"/>
            <path id="Path_34071" data-name="Path 34071" d="M352.516,164.337s0-.655.914-1.362c0,0,.49.805-.914,1.362" transform="translate(-220.66 -102.016)" fill="#233561"/>
            <path id="Path_34072" data-name="Path 34072" d="M352.473,165.817a1.932,1.932,0,0,1,1.614-.289s-.238.912-1.614.289" transform="translate(-220.633 -103.59)" fill="#233561"/>
            <path id="Path_34073" data-name="Path 34073" d="M334.76,176.321c0,.6.365,1.082.815,1.082s.816-.484.816-1.082-.365-1.082-.816-1.082S334.76,175.723,334.76,176.321Z" transform="translate(-209.546 -109.692)" fill="none" stroke="#f2f2f2" stroke-width="0.366"/>
            <path id="Path_34074" data-name="Path 34074" d="M333.946,176.929a.456.456,0,0,0-.525-.263" transform="translate(-208.708 -110.58)" fill="none" stroke="#f2f2f2" stroke-width="0.366"/>
            <path id="Path_34075" data-name="Path 34075" d="M340.828,183.969a3.037,3.037,0,0,1,.74,1.75,2.609,2.609,0,0,1-.74-1.75" transform="translate(-213.338 -115.157)" fill="#233561"/>
            <path id="Path_34076" data-name="Path 34076" d="M333.421,183.751s1.062-1.162,1.863-.7c0,0-1.035,1.285-1.863.7" transform="translate(-208.708 -114.516)" fill="#233561"/>
            <path id="Path_34077" data-name="Path 34077" d="M341.144,185.513s.729,1.114.361,1.892c0,0-.814-1.094-.361-1.892" transform="translate(-213.456 -116.123)" fill="#233561"/>
            <path id="Path_34078" data-name="Path 34078" d="M339.719,206.394l1.128.951-1.263,1.382-.944-1.624Z" transform="translate(-211.974 -129.194)" fill="#233561"/>
            <path id="Path_34079" data-name="Path 34079" d="M300.261,396.821l0,0c.729-.339.459-1.451,1.349-.824.571.4.872,1.127,1.465,1.206a4.019,4.019,0,0,0,2.2-.724l.145-.009a6.154,6.154,0,0,1,.455,3.326.253.253,0,0,1-.235.229l-2.3.131c-2.184-.742-1.678.637-7.848-.119a.25.25,0,0,1-.219-.2c-.1-.629-.021-2.686,4.988-3.01" transform="translate(-184.816 -247.758)" fill="#233561"/>
            <path id="Path_34080" data-name="Path 34080" d="M382.028,381.118v0c.37-.714-.524-1.43.563-1.477.7-.031,1.379.358,1.9.058a4.019,4.019,0,0,0,1.3-1.918h0l.109-.1a6.156,6.156,0,0,1,2.394,2.353.252.252,0,0,1-.046.325l-1.743,1.513c-2.181.749-.938,1.53-6.282,4.705a.249.249,0,0,1-.3-.028c-.462-.439-1.659-2.112,2.106-5.432" transform="translate(-237.47 -236.412)" fill="#233561"/>
            <line id="Line_757" data-name="Line 757" x2="4.074" y2="0.266" transform="translate(126.806 66.638)" fill="none" stroke="#f2f2f2" stroke-width="0.366"/>
            <path id="Path_34081" data-name="Path 34081" d="M362.308,228.336a17.443,17.443,0,0,1-1.332-4.206,15.269,15.269,0,0,1,.8,2.061,15.434,15.434,0,0,1,.532,2.145" transform="translate(-225.956 -140.296)" fill="#b58c40"/>
            <path id="Path_34082" data-name="Path 34082" d="M323.138,211.158c-.107.416-.218.8-.334,1.2a10.572,10.572,0,0,1-.4,1.184,3.316,3.316,0,0,1,.134-1.263,2.768,2.768,0,0,1,.6-1.12" transform="translate(-201.8 -132.176)" fill="#b58c40"/>
            <path id="Path_34083" data-name="Path 34083" d="M340.774,219.48c-.285,1.013-.629,2.008-1,2.994s-.785,1.954-1.224,2.912a22.945,22.945,0,0,1-1.537,2.767,8.808,8.808,0,0,1-.993,1.241,2.169,2.169,0,0,1-1.37.744,2.2,2.2,0,0,0,1.271-.838,8.825,8.825,0,0,0,.912-1.264,26.934,26.934,0,0,0,1.465-2.77c.457-.942.867-1.907,1.277-2.872s.8-1.939,1.2-2.915" transform="translate(-209.479 -137.385)" fill="#b58c40"/>
            <path id="Path_34084" data-name="Path 34084" d="M327.246,232.443c.166,1.123.334,2.243.522,3.359s.379,2.232.626,3.335a30.207,30.207,0,0,0,.845,3.276,11.555,11.555,0,0,0,.618,1.568,3.791,3.791,0,0,0,.988,1.35,3.617,3.617,0,0,1-1.11-1.286,11.589,11.589,0,0,1-.7-1.562,25.933,25.933,0,0,1-.915-3.289c-.225-1.115-.42-2.235-.564-3.361s-.259-2.257-.31-3.391" transform="translate(-204.842 -145.5)" fill="#b58c40"/>
            <path id="Path_34085" data-name="Path 34085" d="M354.3,251.03c-.245.063-.483.135-.726.187s-.484.1-.725.152l-.72.138a1.439,1.439,0,0,0-.324.1c-.014.013-.021,0-.024.005s.019.032.043.048a1.75,1.75,0,0,0,.161.091.676.676,0,0,1-.193-.024.193.193,0,0,1-.1-.063.131.131,0,0,1,.022-.159,1.043,1.043,0,0,1,.353-.205,4.3,4.3,0,0,1,.731-.2,4.543,4.543,0,0,1,1.5-.064" transform="translate(-220.133 -157.11)" fill="#b58c40"/>
            <path id="Path_34086" data-name="Path 34086" d="M355.855,252.055a5.7,5.7,0,0,1-.673.69,3.221,3.221,0,0,0-.316.315.269.269,0,0,0-.073.149c-.009.054.061.109.128.158a.261.261,0,0,1-.255-.106.344.344,0,0,1,.01-.309,1.32,1.32,0,0,1,.316-.414,2.12,2.12,0,0,1,.863-.484" transform="translate(-221.985 -157.776)" fill="#b58c40"/>
            <g id="Group_35772" data-name="Group 35772" transform="translate(33.318 60.466)" opacity="0.23" style="mix-blend-mode: multiply;isolation: isolate">
              <g id="Group_35771" data-name="Group 35771">
                <g id="Group_35770" data-name="Group 35770" clip-path="url(#clip-path-16)">
                  <path id="Path_34087" data-name="Path 34087" d="M95.54,162.716c-.587.037-1.113.058-1.589.073a53.446,53.446,0,0,0-4.876,20.55c.354.441.584.707.584.707a26.2,26.2,0,0,0,5.071-11.2c.989-5.43,4.591-4.126,7.633-4.041,5.081.141,6.167-1.669,2.547-5.2-3.693-3.6-4.692-1.186-9.37-.9" transform="translate(-89.075 -161.656)" fill="#4c649e"/>
                </g>
              </g>
            </g>
            <path id="Path_34088" data-name="Path 34088" d="M82.952,178.367s-5.608-6.457-4.428-9.213.106-6.086,2.459-9.3,3.171-2.526,7.85-2.817,5.678-2.7,9.37.9c3.62,3.528,2.535,5.339-2.547,5.2-3.042-.085-6.645-1.389-7.633,4.041a26.2,26.2,0,0,1-5.071,11.2" transform="translate(-49.051 -97.635)" fill="#7fc991"/>
            <path id="Path_34089" data-name="Path 34089" d="M26.65,182.585c1.651-.936.25-5.521-2.431-7.955-1.852-1.681-3.748-.262-6.44-2.447-1.9-1.543-1.8-2.934-3.3-3.262-1.779-.388-2.466,1.436-5.3,2.006-2.725.549-3.4-.876-5.084-.184C1,172.012-1.188,178.638.7,180.664c1.157,1.239,4-2.5,7.075-1.222,1.534.637,1.494,1.791,3.026,2.178,2.147.544,3.238-1.461,5.494-1.842,4.358-.735,8.507,3.853,10.353,2.806" transform="translate(0 -105.703)" fill="#7fc991"/>
            <path id="Path_34090" data-name="Path 34090" d="M58.5,220.682c-.426-2.08-.88-4.154-1.379-6.217s-1.015-4.121-1.584-6.164a98.688,98.688,0,0,0-4.042-12.046,29.826,29.826,0,0,0-2.946-5.591l-.929-1.282c-.321-.419-.676-.81-1.012-1.217-.174-.2-.333-.41-.519-.6L45.534,187a15.024,15.024,0,0,0-1.133-1.1,22.5,22.5,0,0,0-5.2-3.587,17.781,17.781,0,0,0-6.034-1.877,17.366,17.366,0,0,1,6.114,1.712,22.651,22.651,0,0,1,5.31,3.537,15.226,15.226,0,0,1,1.165,1.1l.564.569c.19.188.352.4.529.6.342.41.7.8,1.03,1.226l.947,1.292a30.06,30.06,0,0,1,3.011,5.639c.821,1.966,1.546,3.969,2.191,6s1.258,4.063,1.784,6.122c1.079,4.111,1.984,8.267,2.687,12.456" transform="translate(-20.762 -112.945)" fill="#40635b"/>
            <path id="Path_34091" data-name="Path 34091" d="M92.881,216.149c-.7-3.577-1.374-7.159-2.042-10.742l-1.955-10.758c-.612-3.593-1.246-7.184-1.733-10.8a52.34,52.34,0,0,1-.491-5.455,11.832,11.832,0,0,1,.225-2.734,4.52,4.52,0,0,1,.51-1.275,3.635,3.635,0,0,1,.928-1,3.6,3.6,0,0,0-.879,1.029,4.48,4.48,0,0,0-.462,1.267,11.682,11.682,0,0,0-.139,2.707,52.782,52.782,0,0,0,.593,5.42c.545,3.6,1.176,7.189,1.816,10.776l1.869,10.772c.609,3.593,1.208,7.189,1.759,10.792" transform="translate(-54.245 -108.532)" fill="#40635b"/>
            <path id="Path_34092" data-name="Path 34092" d="M56.02,230.03s.55-7.122-1.652-8.311-3.228-3.924-6.434-4.8-3.385-.006-6.594,2.232-5.115,1.179-5.661,5.448c-.536,4.186,1.114,4.806,4.362,2.076,1.945-1.634,3.623-4.356,7.088-1.319a21.62,21.62,0,0,0,8.892,4.677" transform="translate(-22.271 -135.568)" fill="#7fc991"/>
            <path id="Path_34093" data-name="Path 34093" d="M83.139,250.788l-.274-1.522-.294-1.517-.307-1.513-.339-1.506a58.728,58.728,0,0,0-1.678-5.929,33.651,33.651,0,0,0-2.441-5.636c-.232-.459-.517-.884-.789-1.318s-.588-.837-.889-1.253l-.229-.309L75.646,230l-.508-.579a6.39,6.39,0,0,0-.551-.538l-.563-.531c.393.33.814.637,1.183,1l.543.554.272.278.247.3a15.127,15.127,0,0,1,.942,1.236c.29.429.594.852.842,1.307a31.475,31.475,0,0,1,2.545,5.659,51.7,51.7,0,0,1,1.6,5.988,61.424,61.424,0,0,1,.934,6.119" transform="translate(-46.337 -142.937)" fill="#40635b"/>
            <g id="Group_35775" data-name="Group 35775" transform="translate(6.489 143.577)" opacity="0.11">
              <g id="Group_35774" data-name="Group 35774">
                <g id="Group_35773" data-name="Group 35773" clip-path="url(#clip-path-17)">
                  <path id="Path_34094" data-name="Path 34094" d="M82.156,388.792c0,2.728-14.508,4.94-32.4,4.94s-32.4-2.212-32.4-4.94,14.508-4.94,32.4-4.94,32.4,2.212,32.4,4.94" transform="translate(-17.349 -383.852)" fill="#344c82"/>
                </g>
              </g>
            </g>
            <path id="Path_34095" data-name="Path 34095" d="M21.746,260.739l-4.4,49.907H28Z" transform="translate(-10.859 -163.212)" fill="#abbac2"/>
            <path id="Path_34096" data-name="Path 34096" d="M30.881,279.668s1.575,42.345,4.195,43.859,48.513,3.232,58.817-5.926c0,0-3.909-5.945-4.854-11.12s-3.132-30.641-3.132-30.641Z" transform="translate(-19.33 -172.664)" fill="#fff"/>
            <path id="Path_34097" data-name="Path 34097" d="M65.5,305.98l-8.431,1.143-.626-8.929,8.77-.615Z" transform="translate(-35.333 -186.272)" fill="none" stroke="#ccc" stroke-width="0.5"/>
            <path id="Path_34098" data-name="Path 34098" d="M95.015,304.459l-8.77.615-.669-9.54,8.812,0Z" transform="translate(-53.567 -184.989)" fill="none" stroke="#ccc" stroke-width="0.5"/>
            <path id="Path_34099" data-name="Path 34099" d="M123.989,301.814l-8.427,1.208-.626-8.929,8.77-.615Z" transform="translate(-71.945 -183.705)" fill="none" stroke="#ccc" stroke-width="0.5"/>
            <path id="Path_34100" data-name="Path 34100" d="M68.1,338.767l-8.8.162L58.676,330l8.769-.615Z" transform="translate(-36.729 -206.181)" fill="none" stroke="#ccc" stroke-width="0.5"/>
            <path id="Path_34101" data-name="Path 34101" d="M97.317,335.5l-8.724,1.263-.672-9.577,8.738-1.07Z" transform="translate(-55.035 -204.137)" fill="none" stroke="#ccc" stroke-width="0.5"/>
            <path id="Path_34102" data-name="Path 34102" d="M126.607,334.862l-8.815-.034-.626-8.929,8.77-.615Z" transform="translate(-73.341 -203.614)" fill="none" stroke="#ccc" stroke-width="0.5"/>
            <path id="Path_34103" data-name="Path 34103" d="M70.266,370.12l-8.77.615-.647-9.229,8.791-.315Z" transform="translate(-38.089 -226.09)" fill="none" stroke="#ccc" stroke-width="0.5"/>
            <rect id="Rectangle_19343" data-name="Rectangle 19343" width="8.791" height="8.951" transform="translate(53.677 109.639) rotate(-4.011)" fill="none" stroke="#ccc" stroke-width="0.5"/>
            <rect id="Rectangle_19344" data-name="Rectangle 19344" width="8.791" height="8.951" transform="translate(54.511 121.536) rotate(-4.011)" fill="none" stroke="#ccc" stroke-width="0.5"/>
            <path id="Path_34104" data-name="Path 34104" d="M157.9,364.016l-8.77.615-.306-9.514,8.449-.03Z" transform="translate(-93.156 -222.27)" fill="none" stroke="#ccc" stroke-width="0.5"/>
            <path id="Path_34105" data-name="Path 34105" d="M99.547,368.069l-9.258-.245-.138-8.069,8.77-.615Z" transform="translate(-56.43 -224.807)" fill="none" stroke="#ccc" stroke-width="0.5"/>
            <path id="Path_34106" data-name="Path 34106" d="M128.792,365.518l-8.77.615L119.4,357.2l8.749-.915Z" transform="translate(-74.737 -223.022)" fill="none" stroke="#ccc" stroke-width="0.5"/>
            <path id="Path_34107" data-name="Path 34107" d="M84.131,250.5,29.1,254.332l.664,9.477L84.8,259.98Zm-44.742,9.446a1.573,1.573,0,1,1,1.459-1.679,1.573,1.573,0,0,1-1.459,1.679m9.37-.657a1.573,1.573,0,1,1,1.459-1.679,1.573,1.573,0,0,1-1.459,1.679m9.37-.657a1.573,1.573,0,1,1,1.459-1.679,1.573,1.573,0,0,1-1.459,1.679m9.37-.657a1.573,1.573,0,1,1,1.459-1.679,1.573,1.573,0,0,1-1.459,1.679m9.37-.657a1.573,1.573,0,1,1,1.459-1.679,1.573,1.573,0,0,1-1.459,1.679" transform="translate(-18.219 -156.804)" fill="#fcc858"/>
            <path id="Path_34108" data-name="Path 34108" d="M97.068,302.887a6.684,6.684,0,0,1-.656,1.2,11.05,11.05,0,0,1-.817,1.063,10.883,10.883,0,0,1-.938.958,6.594,6.594,0,0,1-1.1.817,6.58,6.58,0,0,1,.656-1.2,10.83,10.83,0,0,1,.817-1.062,11.047,11.047,0,0,1,.938-.957,6.689,6.689,0,0,1,1.1-.818" transform="translate(-58.563 -189.595)" fill="#4d4d4d"/>
            <path id="Path_34109" data-name="Path 34109" d="M96.891,307.105a6.685,6.685,0,0,1-1.2-.656,11.046,11.046,0,0,1-1.063-.817,10.834,10.834,0,0,1-.958-.938,6.6,6.6,0,0,1-.817-1.1,6.577,6.577,0,0,1,1.2.656,10.792,10.792,0,0,1,1.063.817,11.1,11.1,0,0,1,.957.938,6.708,6.708,0,0,1,.818,1.1" transform="translate(-58.121 -190.038)" fill="#4d4d4d"/>
            <path id="Path_34110" data-name="Path 34110" d="M130.831,364.047a6.684,6.684,0,0,1-.656,1.2,11.169,11.169,0,0,1-.817,1.063,10.941,10.941,0,0,1-.938.958,6.579,6.579,0,0,1-1.1.817,6.536,6.536,0,0,1,.656-1.2,10.771,10.771,0,0,1,.817-1.062,11.151,11.151,0,0,1,.939-.957,6.687,6.687,0,0,1,1.1-.818" transform="translate(-79.698 -227.878)" fill="#4d4d4d"/>
            <path id="Path_34111" data-name="Path 34111" d="M130.653,368.265a6.684,6.684,0,0,1-1.2-.656,11.048,11.048,0,0,1-1.063-.817,10.89,10.89,0,0,1-.958-.938,6.6,6.6,0,0,1-.817-1.1,6.582,6.582,0,0,1,1.2.656,10.832,10.832,0,0,1,1.062.817,11.048,11.048,0,0,1,.957.938,6.7,6.7,0,0,1,.818,1.1" transform="translate(-79.254 -228.321)" fill="#4d4d4d"/>
            <path id="Path_34112" data-name="Path 34112" d="M70.053,336.743a6.685,6.685,0,0,1-.656,1.2,11.047,11.047,0,0,1-.817,1.063,10.828,10.828,0,0,1-.938.958,6.6,6.6,0,0,1-1.1.817,6.581,6.581,0,0,1,.656-1.2,10.822,10.822,0,0,1,.817-1.062,11.093,11.093,0,0,1,.938-.957,6.7,6.7,0,0,1,1.1-.818" transform="translate(-41.653 -210.787)" fill="#94c8e3"/>
            <path id="Path_34113" data-name="Path 34113" d="M69.876,340.961a6.685,6.685,0,0,1-1.2-.656,11.05,11.05,0,0,1-1.063-.816,10.889,10.889,0,0,1-.958-.938,6.6,6.6,0,0,1-.817-1.1,6.579,6.579,0,0,1,1.2.656,10.793,10.793,0,0,1,1.063.817,11.043,11.043,0,0,1,.957.938,6.687,6.687,0,0,1,.818,1.1" transform="translate(-41.211 -211.23)" fill="#94c8e3"/>
            <path id="Path_34114" data-name="Path 34114" d="M176.107,383.984c.519-.4,1-.829,1.473-1.27a14.738,14.738,0,0,0,1.3-1.411,10.1,10.1,0,0,0,1.047-1.6,8.853,8.853,0,0,0,.675-1.808,5.439,5.439,0,0,1-.41,1.93,7.4,7.4,0,0,1-1.021,1.708,8.962,8.962,0,0,1-3.069,2.447" transform="translate(-110.236 -236.549)" fill="#ccc"/>
            <path id="Path_34115" data-name="Path 34115" d="M35.054,289.664l.307,5.056.329,5.054c.236,3.367.478,6.735.8,10.094.292,3.362.657,6.717,1.129,10.057.241,1.669.516,3.333.882,4.978.083.413.185.822.291,1.229s.226.811.348,1.214c.056.2.136.4.21.6s.137.4.235.585l.275.569.355.524a7.232,7.232,0,0,1-1.169-2.24c-.136-.4-.281-.8-.39-1.208s-.236-.813-.333-1.225c-.4-1.644-.712-3.308-.987-4.976-.533-3.34-.9-6.7-1.217-10.067-.288-3.367-.536-6.737-.71-10.111s-.307-6.75-.35-10.128" transform="translate(-21.942 -181.318)" fill="#ccc"/>
            <path id="Path_34116" data-name="Path 34116" d="M29.769,270.216l2.134-.15-.573-8.64-2.225-.687Z" transform="translate(-18.218 -163.212)" fill="#b58c40"/>
            <path id="Path_34117" data-name="Path 34117" d="M41.948,254.279a7.5,7.5,0,0,1,1.158-1.772,4.819,4.819,0,0,1,1.741-1.309,2.944,2.944,0,0,1,2.268-.027,4.615,4.615,0,0,1,1.789,1.358,3.69,3.69,0,0,1,.881,2.1,3.931,3.931,0,0,1-.519,2.19,5.387,5.387,0,0,1-1.436,1.639,4.6,4.6,0,0,1-1.924.9,6.032,6.032,0,0,0,2.817-2.815,3.537,3.537,0,0,0,.344-1.85,3.2,3.2,0,0,0-.734-1.7,4.319,4.319,0,0,0-1.478-1.2,2.526,2.526,0,0,0-1.817-.083,4.955,4.955,0,0,0-1.692,1.031,10.265,10.265,0,0,0-1.4,1.533" transform="translate(-26.258 -157.089)" fill="#4d4d4d"/>
            <path id="Path_34118" data-name="Path 34118" d="M67.133,252.012a7.5,7.5,0,0,1,1.158-1.772,4.815,4.815,0,0,1,1.741-1.309A2.944,2.944,0,0,1,72.3,248.9a4.616,4.616,0,0,1,1.789,1.358,3.689,3.689,0,0,1,.881,2.1,3.932,3.932,0,0,1-.519,2.19,5.386,5.386,0,0,1-1.436,1.638,4.591,4.591,0,0,1-1.924.9,6.032,6.032,0,0,0,2.817-2.815,3.535,3.535,0,0,0,.344-1.85,3.2,3.2,0,0,0-.734-1.7,4.31,4.31,0,0,0-1.478-1.2,2.526,2.526,0,0,0-1.817-.083,4.949,4.949,0,0,0-1.692,1.031,10.247,10.247,0,0,0-1.4,1.533" transform="translate(-42.022 -155.67)" fill="#4d4d4d"/>
            <path id="Path_34119" data-name="Path 34119" d="M92.5,251.271a6.819,6.819,0,0,1,1.053-1.636,4.413,4.413,0,0,1,1.6-1.213,2.722,2.722,0,0,1,2.1-.029,4.256,4.256,0,0,1,1.656,1.253,3.41,3.41,0,0,1,.815,1.942,3.623,3.623,0,0,1-.483,2.025,4.939,4.939,0,0,1-1.33,1.5,4.187,4.187,0,0,1-1.777.813,5.578,5.578,0,0,0,2.564-2.6,3.234,3.234,0,0,0,.309-1.684,2.925,2.925,0,0,0-.668-1.54,3.949,3.949,0,0,0-1.344-1.092,2.3,2.3,0,0,0-1.649-.081,4.547,4.547,0,0,0-1.552.935,9.56,9.56,0,0,0-1.292,1.4" transform="translate(-57.902 -155.361)" fill="#4d4d4d"/>
            <path id="Path_34120" data-name="Path 34120" d="M117.361,249.087a6.794,6.794,0,0,1,1.047-1.629A4.388,4.388,0,0,1,120,246.25a2.711,2.711,0,0,1,2.091-.03,4.235,4.235,0,0,1,1.648,1.248,3.392,3.392,0,0,1,.811,1.933,3.6,3.6,0,0,1-.481,2.016,4.911,4.911,0,0,1-1.324,1.5,4.158,4.158,0,0,1-1.769.809,5.557,5.557,0,0,0,2.55-2.583,3.219,3.219,0,0,0,.306-1.675,2.906,2.906,0,0,0-.664-1.531,3.939,3.939,0,0,0-1.336-1.086,2.288,2.288,0,0,0-1.64-.08,4.529,4.529,0,0,0-1.544.93,9.548,9.548,0,0,0-1.286,1.39" transform="translate(-73.463 -154.002)" fill="#4d4d4d"/>
            <path id="Path_34121" data-name="Path 34121" d="M143.689,247.161a6.622,6.622,0,0,1,1.024-1.6,4.3,4.3,0,0,1,1.561-1.186,2.662,2.662,0,0,1,2.053-.03,4.152,4.152,0,0,1,1.618,1.224,3.33,3.33,0,0,1,.8,1.9,3.538,3.538,0,0,1-.474,1.979,4.81,4.81,0,0,1-1.3,1.467,4.073,4.073,0,0,1-1.736.789,5.451,5.451,0,0,0,2.493-2.534,3.143,3.143,0,0,0,.3-1.638,2.841,2.841,0,0,0-.649-1.5,3.856,3.856,0,0,0-1.307-1.063,2.235,2.235,0,0,0-1.6-.08,4.427,4.427,0,0,0-1.512.909,9.358,9.358,0,0,0-1.263,1.36" transform="translate(-89.943 -152.831)" fill="#4d4d4d"/>
            <path id="Path_34122" data-name="Path 34122" d="M94.208,334.079a4.331,4.331,0,0,0,.768,2.654,3.008,3.008,0,0,0,2.267,1.354,3.369,3.369,0,0,0,2.425-1.034,3.538,3.538,0,0,0,1.1-2.4,3.165,3.165,0,0,0-1.1-2.367,2.9,2.9,0,0,0-2.463-.818,2.764,2.764,0,0,0-1.938,1.753,3.748,3.748,0,0,0-.014,2.742,3.733,3.733,0,0,1-.157-2.807,2.991,2.991,0,0,1,2.049-1.969,2.631,2.631,0,0,1,1.484.088,3.745,3.745,0,0,1,1.269.759,3.513,3.513,0,0,1,1.24,2.627A3.89,3.89,0,0,1,99.9,337.3a3.561,3.561,0,0,1-2.68,1.077,3.232,3.232,0,0,1-2.4-1.538,4.274,4.274,0,0,1-.616-2.756" transform="translate(-58.952 -207.269)" fill="#fcc858"/>
            <path id="Path_34123" data-name="Path 34123" d="M153.242,295.117a4.329,4.329,0,0,0-2.714.519,3.007,3.007,0,0,0-1.558,2.131,3.368,3.368,0,0,0,.805,2.51,3.538,3.538,0,0,0,2.285,1.318,3.167,3.167,0,0,0,2.458-.871,2.893,2.893,0,0,0,1.042-2.377,2.762,2.762,0,0,0-1.566-2.092,3.75,3.75,0,0,0-2.729-.268,3.736,3.736,0,0,1,2.809.1,2.992,2.992,0,0,1,1.771,2.223,2.63,2.63,0,0,1-.225,1.469,3.751,3.751,0,0,1-.873,1.194,3.515,3.515,0,0,1-2.73.992,3.89,3.89,0,0,1-2.506-1.476,3.562,3.562,0,0,1-.824-2.768,3.231,3.231,0,0,1,1.754-2.247,4.274,4.274,0,0,1,2.8-.359" transform="translate(-93.047 -184.672)" fill="#fcc858"/>
            <path id="Path_34124" data-name="Path 34124" d="M99.657,338.275a11.835,11.835,0,0,1,1.255.958l-.248.025c.149-.238.31-.467.472-.7s.333-.45.515-.664.365-.427.565-.626a2.944,2.944,0,0,1,.664-.531c-.184.214-.328.45-.488.677l-.472.686c-.318.454-.645.9-.987,1.342l-.123.157-.125-.132a11.665,11.665,0,0,1-1.029-1.2" transform="translate(-62.381 -210.787)" fill="#fcc858"/>
            <g id="Group_35778" data-name="Group 35778" transform="translate(104.078 33.12)" opacity="0.23" style="mix-blend-mode: multiply;isolation: isolate">
              <g id="Group_35777" data-name="Group 35777">
                <g id="Group_35776" data-name="Group 35776" clip-path="url(#clip-path-18)">
                  <path id="Path_34125" data-name="Path 34125" d="M283.8,97.2q1.47.788,2.876,1.674a37.014,37.014,0,0,0,5.875-2.987,53.544,53.544,0,0,0-14.3-7.339c2,3.255,4.116,6.6,5.546,8.652" transform="translate(-278.252 -88.545)" fill="#4c649e"/>
                </g>
              </g>
            </g>
            <path id="Path_34126" data-name="Path 34126" d="M272.971,47.828s11.63,19.638,12.8,19.918,15.059-6.456,15.66-12.453a26.925,26.925,0,0,1-4.355-4.427c-1.642-2.276-9-13.882-9-13.882Z" transform="translate(-170.868 -23.15)" fill="#fff"/>
            <path id="Path_34127" data-name="Path 34127" d="M343.527,86.87a15.161,15.161,0,0,0-.016-1.811c-.019-.3-.056-.59-.1-.885s-.115-.589-.166-.9a2.766,2.766,0,0,1,.449.83,3.509,3.509,0,0,1,.195.929,3.734,3.734,0,0,1-.048.947,2.693,2.693,0,0,1-.309.892" transform="translate(-214.854 -52.124)" fill="#abbac2"/>
            <path id="Path_34128" data-name="Path 34128" d="M283.164,57.1l1.372-.954,1.382-.936,2.762-1.867c.924-.617,1.835-1.251,2.747-1.884s1.809-1.286,2.662-2c-.191.2-.382.407-.582.6l-.614.57c-.426.361-.855.719-1.295,1.062-.877.691-1.787,1.337-2.71,1.963s-1.86,1.228-2.817,1.8-1.917,1.136-2.908,1.648" transform="translate(-177.249 -30.955)" fill="#abbac2"/>
            <path id="Path_34129" data-name="Path 34129" d="M287.361,62.635l1.372-.954,1.382-.936,2.762-1.867c.924-.617,1.835-1.251,2.747-1.884s1.809-1.286,2.662-2c-.191.2-.382.407-.582.6l-.614.57c-.426.361-.855.719-1.295,1.062-.877.691-1.787,1.337-2.71,1.963s-1.86,1.228-2.817,1.8-1.917,1.136-2.908,1.648" transform="translate(-179.876 -34.422)" fill="#abbac2"/>
            <path id="Path_34130" data-name="Path 34130" d="M291.559,68.174l1.372-.954,1.382-.936,2.762-1.867c.924-.617,1.835-1.251,2.747-1.884s1.809-1.286,2.662-2c-.191.2-.382.407-.582.6l-.614.57c-.426.361-.855.719-1.295,1.062-.877.691-1.787,1.337-2.71,1.963s-1.86,1.228-2.817,1.8-1.917,1.136-2.908,1.648" transform="translate(-182.504 -37.889)" fill="#abbac2"/>
            <path id="Path_34131" data-name="Path 34131" d="M295.757,73.713l1.372-.954,1.382-.936,2.762-1.867c.924-.617,1.835-1.251,2.747-1.884s1.809-1.286,2.662-2c-.191.2-.382.407-.582.6l-.614.57c-.426.361-.855.719-1.295,1.062-.877.691-1.787,1.337-2.71,1.963s-1.86,1.228-2.817,1.8-1.917,1.136-2.908,1.648" transform="translate(-185.131 -41.356)" fill="#abbac2"/>
            <path id="Path_34132" data-name="Path 34132" d="M299.954,79.251l1.372-.954,1.382-.936,2.762-1.867c.924-.617,1.835-1.251,2.747-1.884s1.809-1.286,2.662-2c-.191.2-.382.407-.582.6l-.614.57c-.426.361-.855.719-1.295,1.062-.877.691-1.787,1.337-2.71,1.963s-1.86,1.228-2.817,1.8-1.917,1.136-2.908,1.648" transform="translate(-187.759 -44.823)" fill="#abbac2"/>
            <path id="Path_34133" data-name="Path 34133" d="M304.152,84.79l1.372-.954,1.382-.936,2.762-1.867c.924-.617,1.835-1.251,2.747-1.884s1.809-1.286,2.662-2c-.191.2-.382.407-.582.6l-.614.57c-.426.361-.855.719-1.295,1.062-.877.691-1.787,1.337-2.71,1.963s-1.86,1.228-2.817,1.8-1.917,1.136-2.908,1.648" transform="translate(-190.386 -48.29)" fill="#abbac2"/>
            <path id="Path_34134" data-name="Path 34134" d="M308.349,90.329l1.372-.954,1.382-.936,2.762-1.867c.924-.617,1.835-1.251,2.747-1.884s1.809-1.286,2.662-2c-.191.2-.382.407-.582.6l-.614.57c-.426.361-.855.719-1.295,1.062-.877.691-1.787,1.337-2.71,1.963s-1.86,1.228-2.817,1.8-1.917,1.136-2.908,1.648" transform="translate(-193.014 -51.757)" fill="#abbac2"/>
          </g>
        </g>
      </g>
    </g>
  </g>
</svg>
