<svg xmlns="http://www.w3.org/2000/svg" width="140" height="120" viewBox="0 0 140 120">
  <g id="Group_36015" data-name="Group 36015" transform="translate(-202 -3072)">
    <g id="Rectangle_19495" data-name="Rectangle 19495" transform="translate(202 3072)" fill="#fff" stroke="#707070" stroke-width="1" opacity="0">
      <rect width="140" height="120" stroke="none"/>
      <rect x="0.5" y="0.5" width="139" height="119" fill="none"/>
    </g>
    <g id="alsaadoun" transform="translate(202.001 3111)">
      <path id="Path_34864" data-name="Path 34864" d="M540.763,7.669V9.363C536.174,6.735,530.445,6.307,526,6.516a35.524,35.524,0,0,0-11.723,2.179c-2.772,1.118-6.477,3.574-7.827,6.838a6.71,6.71,0,0,0,.035,5.326c1.563,3.583,5.59,4.933,11.938,4.011.92-.139,1.862-.324,2.806-.508a20.012,20.012,0,0,1,5.451-.612,1.993,1.993,0,0,1,1.584.7c.162.334-.117.854-.244,1.061-1.34,2.149-5.113,4.011-11.24,5.51-3.249.8-8.011,1.407-12.217,1.954-2.345.3-4.578.586-6.487.9V7.669C498.09,3.679,501.362,0,505.391,0h28.071C537.491,0,540.763,3.679,540.763,7.669Z" transform="translate(-400.764)" fill="#999"/>
      <path id="Path_34865" data-name="Path 34865" d="M544.158,62.9a.979.979,0,0,0,.162.148V82.785a7.26,7.26,0,0,1-7.3,7.217H508.948a7.313,7.313,0,0,1-6.448-3.839c1.817-.3,3.994-.586,6.3-.864,4.543-.586,9.236-1.2,12.764-2.053,4.834-1.186,11.576-3.273,14.361-7.78a5.974,5.974,0,0,0,.455-5.924,6.776,6.776,0,0,0-5.648-3.458,24.228,24.228,0,0,0-6.93.68c-.852.174-1.7.346-2.552.473-3.738.541-6,.184-6.534-1.037a1.667,1.667,0,0,1,.012-1.43c.664-1.612,3.087-3.308,5.043-4.1A31.246,31.246,0,0,1,529.8,58.855C534.42,58.659,540.662,59.179,544.158,62.9Z" transform="translate(-404.32 -47.327)" fill="#999"/>
      <path id="Path_34866" data-name="Path 34866" d="M41.569,67.166a1.131,1.131,0,0,0,.819-1.934,1.172,1.172,0,0,0-.819-.313,1.106,1.106,0,0,0-.782.313,1.092,1.092,0,0,0-.328.8,1.123,1.123,0,0,0,.328.8A1.073,1.073,0,0,0,41.569,67.166Z" transform="translate(-32.554 -52.235)" fill="#999"/>
      <path id="Path_34867" data-name="Path 34867" d="M29.73,76.42h-.8v2.624a5.151,5.151,0,0,1-.77,3.181,2.411,2.411,0,0,1-2.016.852,2.356,2.356,0,0,1-1.852-.877,2.931,2.931,0,0,1-.705-1.954,3.038,3.038,0,0,1,.277-1.213,3.544,3.544,0,0,1,.977-1.329H23.663a1.59,1.59,0,0,0-1.4.721,3.184,3.184,0,0,0-.475,1.837,4.845,4.845,0,0,0,1.3,3.427,4.285,4.285,0,0,0,3.3,1.442,4.191,4.191,0,0,0,4.082-2.278,6.057,6.057,0,0,0,.586-1.885c.045-.264.076-.541.1-.836,0-.209.016-.428.016-.656V77.88A1.279,1.279,0,0,0,29.73,76.42Z" transform="translate(-17.534 -61.489)" fill="#999"/>
      <path id="Path_34868" data-name="Path 34868" d="M80.648,69.833a3.675,3.675,0,0,0-1.213-.213,3.117,3.117,0,0,0-2.491,1.067,3.833,3.833,0,0,0-.854,2.573,2.912,2.912,0,0,0,1.368,2.69,6.1,6.1,0,0,0,2.821.7,4.721,4.721,0,0,1-3.214.952v.8a.838.838,0,0,0,.375.69,1.51,1.51,0,0,0,.95.277,4.389,4.389,0,0,0,3.394-1.262,3.113,3.113,0,0,0,.69-1.1,2.72,2.72,0,0,0,.213-1.034l.029-2.427a6.2,6.2,0,0,0-.148-1.278A3.039,3.039,0,0,0,80.648,69.833Zm.033,4.822h-.688a2.661,2.661,0,0,1-1.3-.246,1.485,1.485,0,0,1-.608-1.368,2,2,0,0,1,.313-1.172,1.012,1.012,0,0,1,.9-.475,1.159,1.159,0,0,1,1.172.95,4.63,4.63,0,0,1,.162.936l.018.508.016.508Z" transform="translate(-61.224 -56.017)" fill="#999"/>
      <path id="Path_34869" data-name="Path 34869" d="M172.218,55.44h-.8v6.887q0,.867-.77.918h-1.082a.7.7,0,0,1-.77-.754V61.063c-.012-.447-.018-.754-.018-.916a1.274,1.274,0,0,0-1.442-1.444h-.8v3.624c0,.569-.328.873-.977.918q-.77,0-.967-.231a6.785,6.785,0,0,0,.066-.688c.021-.3.031-.586.031-.9V60.147a1.274,1.274,0,0,0-1.442-1.444h-.782v3.624a.8.8,0,0,1-.8.918h-1.082V59.819a1.022,1.022,0,0,0-.41-.8,1.237,1.237,0,0,0-.8-.313h-1.034v4.543h-3.609l-.3-.018a.957.957,0,0,1-.311-.049,9.718,9.718,0,0,0,1.344-1.639,8.791,8.791,0,0,0,.869-1.563l-.361-.231-.369-.24a6.647,6.647,0,0,0-.606-.391,7.452,7.452,0,0,0-.721-.391,4.388,4.388,0,0,0-1.823-.44,3.614,3.614,0,0,0-1.377.313c-.2.076-.416.174-.656.3-.152.076-.35.186-.586.328h.018l-.328.18-.328.18c-.24.131-.447.236-.623.313,0,.088,0,.24-.016.459l-.022.277-.016.115v.113c-.021.264-.033.5-.033.705a4.2,4.2,0,0,1,2.345,1.624,2.6,2.6,0,0,1-.77.066H124.883a1.806,1.806,0,0,1-1.131-.246,2.635,2.635,0,0,1-.49-1.018V62a4.308,4.308,0,0,0-2.886-3.247,2.8,2.8,0,0,0-.723-.1,1.862,1.862,0,0,0-1.606.977l-.391.918a9.444,9.444,0,0,1,1.049-.131,2.423,2.423,0,0,1,1.9.885,3.361,3.361,0,0,1,.782,1.954h-4.259v.852a1.25,1.25,0,0,0,.262.8,1,1,0,0,0,.821.361h3.64A1.758,1.758,0,0,0,123,64.746a3,3,0,0,0,1.919.524h24.708a4.984,4.984,0,0,0,1.606-.279,3.858,3.858,0,0,0,1.082-.508,4.757,4.757,0,0,0,1.885.688,6.673,6.673,0,0,0,.869.082c.119.012.246.018.377.018h5.861a3.877,3.877,0,0,0,2.278-.492,3.8,3.8,0,0,0,1.377.426,4.917,4.917,0,0,0,.557.066h.391a5.2,5.2,0,0,0,1.049-.131,2.288,2.288,0,0,0,.934-.459,2.655,2.655,0,0,0,1.788.586h1.114a2.968,2.968,0,0,0,2.165-.854,2.772,2.772,0,0,0,.721-2V56.884A1.286,1.286,0,0,0,172.218,55.44ZM152.51,62.114a6.334,6.334,0,0,1-.821-.69l-.459-.377c-.186-.143-.334-.256-.442-.344l.147-.1.18-.1c.143-.064.285-.125.428-.18a2.833,2.833,0,0,1,1.08-.213,3.777,3.777,0,0,1,1.4.32,12.179,12.179,0,0,1-1.508,1.68Z" transform="translate(-94.243 -44.608)" fill="#999"/>
      <path id="Path_34870" data-name="Path 34870" d="M415.517,55.721a1.266,1.266,0,0,0-.821-.311H413.68v8.4a1.467,1.467,0,0,0,.391,1.082,1.258,1.258,0,0,0,.9.344h.934V56.514a1.043,1.043,0,0,0-.391-.793Z" transform="translate(-332.853 -44.584)" fill="#999"/>
      <path id="Path_34871" data-name="Path 34871" d="M161.233,132.469a1.794,1.794,0,0,0-1.333.492,2.2,2.2,0,0,0-.487,1.588v.234a1.124,1.124,0,0,0,.014.215.506.506,0,0,1-.119.291,1.192,1.192,0,0,1-.238.2c-.094.057-.2.113-.3.172a1.384,1.384,0,0,0-.291.215,1.008,1.008,0,0,0-.219.324,1.225,1.225,0,0,0-.086.49v1.758h.8v-1.563a.7.7,0,0,1,.086-.391.717.717,0,0,1,.205-.2,2.815,2.815,0,0,1,.248-.143.6.6,0,0,0,.225-.221,1.381,1.381,0,0,0,.615.516,2.21,2.21,0,0,0,.873.162,2.252,2.252,0,0,0,.758-.119,1.4,1.4,0,0,0,.572-.367,1.691,1.691,0,0,0,.363-.639,3.007,3.007,0,0,0,.129-.936,2.2,2.2,0,0,0-.486-1.588A1.794,1.794,0,0,0,161.233,132.469Zm.782,3.083a1.118,1.118,0,0,1-1.563,0,1.647,1.647,0,0,1-.244-1,1.712,1.712,0,0,1,.244-.977,1.032,1.032,0,0,1,1.563,0,1.711,1.711,0,0,1,.244.977,1.672,1.672,0,0,1-.248,1Z" transform="translate(-127.272 -106.585)" fill="#999"/>
      <path id="Path_34872" data-name="Path 34872" d="M187.561,133.356h-.612a.086.086,0,0,0-.1.1V137.6c0,.539-.258.811-.782.811h-.221a.084.084,0,0,0-.1.1v.553a.086.086,0,0,0,.1.1h.258a1.534,1.534,0,0,0,1.159-.4,1.612,1.612,0,0,0,.391-1.172v-4.132a.086.086,0,0,0-.1-.1Z" transform="translate(-149.462 -107.3)" fill="#999"/>
      <rect id="Rectangle_19528" data-name="Rectangle 19528" width="0.84" height="0.887" rx="0.42" transform="translate(68.007 24.224)" fill="#999"/>
      <rect id="Rectangle_19529" data-name="Rectangle 19529" width="0.84" height="0.887" rx="0.42" transform="translate(71.394 30.847)" fill="#999"/>
      <rect id="Rectangle_19530" data-name="Rectangle 19530" width="0.84" height="0.887" rx="0.42" transform="translate(72.559 30.847)" fill="#999"/>
      <rect id="Rectangle_19531" data-name="Rectangle 19531" width="0.84" height="0.887" rx="0.42" transform="translate(74.993 24.224)" fill="#999"/>
      <path id="Path_34873" data-name="Path 34873" d="M237.725,132.628h-.612a.086.086,0,0,0-.1.1v2.558a.553.553,0,0,1-.109.391.479.479,0,0,1-.348.109h-.782a1.077,1.077,0,0,1-.623-.162.551.551,0,0,1-.234-.487v-2.409a.084.084,0,0,0-.1-.1h-.612a.084.084,0,0,0-.094.1v2.558a.553.553,0,0,1-.111.391.475.475,0,0,1-.348.109h-2.044a.816.816,0,0,0-.143.01,1.954,1.954,0,0,0,.625-.7,1.9,1.9,0,0,0,.223-.907,2.071,2.071,0,0,0-.113-.7,1.463,1.463,0,0,0-.348-.549,1.622,1.622,0,0,0-.586-.358,2.8,2.8,0,0,0-1.678,0,1.622,1.622,0,0,0-.586.358,1.44,1.44,0,0,0-.348.549,2.071,2.071,0,0,0-.115.7,1.886,1.886,0,0,0,.221.91,2.028,2.028,0,0,0,.615.692H204.99v-1.25a2.225,2.225,0,0,0-.477-1.588,1.759,1.759,0,0,0-1.327-.492,1.939,1.939,0,0,0-.705.129,1.6,1.6,0,0,0-.586.391,1.858,1.858,0,0,0-.4.666,2.8,2.8,0,0,0-.147.95,2.944,2.944,0,0,0,.123.916,1.407,1.407,0,0,0,.363.6,1.442,1.442,0,0,0,.576.324,2.692,2.692,0,0,0,.76.1h1.02v.248a1.254,1.254,0,0,1-.066.443.687.687,0,0,1-.2.277.738.738,0,0,1-.281.143,1.366,1.366,0,0,1-.354.043h-1.145a.084.084,0,0,0-.1.1v.553a.084.084,0,0,0,.1.1h1.172a2.3,2.3,0,0,0,.678-.1,1.348,1.348,0,0,0,.52-.295,1.327,1.327,0,0,0,.334-.516,2.15,2.15,0,0,0,.119-.764v-.229h24.165c.186,0,.391-.01.635-.029a1.655,1.655,0,0,0,.672-.2,1.328,1.328,0,0,0,.586.2c.2.02.42.029.649.029h2.128a.986.986,0,0,0,.993-.5.834.834,0,0,0,.354.371,1.09,1.09,0,0,0,.535.125h1.02a1.1,1.1,0,0,0,.86-.291,1.35,1.35,0,0,0,.258-.912v-2.6a.086.086,0,0,0-.1-.1Zm-33.532,3.159h-.961a1.131,1.131,0,0,1-.807-.258,1.266,1.266,0,0,1-.272-.936,1.665,1.665,0,0,1,.281-1.01.891.891,0,0,1,.758-.391.858.858,0,0,1,.77.354,1.778,1.778,0,0,1,.233.977Zm26.24-.162a1.919,1.919,0,0,1-.744-.52,1.268,1.268,0,0,1-.3-.864.989.989,0,0,1,.3-.782,1.194,1.194,0,0,1,1.506,0,.989.989,0,0,1,.3.782,1.26,1.26,0,0,1-.313.856A1.889,1.889,0,0,1,230.433,135.625Z" transform="translate(-162.007 -106.572)" fill="#999"/>
      <rect id="Rectangle_19532" data-name="Rectangle 19532" width="0.84" height="0.887" rx="0.42" transform="translate(82.608 30.847)" fill="#999"/>
      <rect id="Rectangle_19533" data-name="Rectangle 19533" width="0.84" height="0.887" rx="0.42" transform="translate(81.443 30.847)" fill="#999"/>
      <path id="Path_34874" data-name="Path 34874" d="M398.318,136.519a1.1,1.1,0,0,0,.86-.291,1.35,1.35,0,0,0,.258-.912v-2.6a.084.084,0,0,0-.1-.1h-.61a.084.084,0,0,0-.1.1v2.558a.553.553,0,0,1-.111.391.475.475,0,0,1-.348.109h-1.327v-1.25a2.225,2.225,0,0,0-.477-1.588,1.758,1.758,0,0,0-1.327-.492,1.938,1.938,0,0,0-.705.129,1.621,1.621,0,0,0-.586.391,1.883,1.883,0,0,0-.391.666,2.8,2.8,0,0,0-.147.95,2.943,2.943,0,0,0,.123.916,1.406,1.406,0,0,0,.363.6,1.442,1.442,0,0,0,.586.324,2.688,2.688,0,0,0,.758.1h1.022v.248a1.254,1.254,0,0,1-.066.444.688.688,0,0,1-.186.277.738.738,0,0,1-.3.145,1.369,1.369,0,0,1-.354.043h-1.145a.084.084,0,0,0-.1.1v.553a.084.084,0,0,0,.1.1H395.2a2.3,2.3,0,0,0,.678-.1,1.348,1.348,0,0,0,.52-.3,1.327,1.327,0,0,0,.334-.516,2.148,2.148,0,0,0,.119-.764v-.229h1.469Zm-2.27-.744h-.963a1.131,1.131,0,0,1-.807-.258,1.266,1.266,0,0,1-.272-.936,1.664,1.664,0,0,1,.281-1.01.891.891,0,0,1,.758-.391.852.852,0,0,1,.768.354,1.758,1.758,0,0,1,.234.977Z" transform="translate(-316.388 -106.559)" fill="#999"/>
      <path id="Path_34875" data-name="Path 34875" d="M1.8,65.082a1.209,1.209,0,0,1,0,2.085,1.172,1.172,0,0,1-.61.164,1.172,1.172,0,0,1-.61-.162A1.206,1.206,0,0,1,0,66.129a1.172,1.172,0,0,1,.16-.608,1.2,1.2,0,0,1,.426-.436,1.145,1.145,0,0,1,.608-.166A1.172,1.172,0,0,1,1.8,65.082Zm-.113,1.883a.942.942,0,0,0,.356-.356.977.977,0,0,0,.129-.488.94.94,0,0,0-.129-.483.98.98,0,0,0-1.694.006.934.934,0,0,0-.131.485.965.965,0,0,0,.479.836.953.953,0,0,0,.492.131A.959.959,0,0,0,1.692,66.965Zm-.041-.825a.391.391,0,0,1-.176.148l.262.391H1.481l-.209-.35h-.3v.348H.744V65.506H1.23a.551.551,0,0,1,.356.1.369.369,0,0,1,.125.3.428.428,0,0,1-.061.229Zm-.684,0H1.23a.291.291,0,0,0,.2-.061.221.221,0,0,0,.072-.168.2.2,0,0,0-.07-.168.313.313,0,0,0-.2-.057H.976Z" transform="translate(0 -52.235)" fill="#999"/>
    </g>
  </g>
</svg>
