<svg xmlns="http://www.w3.org/2000/svg" width="140" height="120" viewBox="0 0 140 120">
  <g id="Group_35997" data-name="Group 35997" transform="translate(-620 -3072)">
    <g id="Rectangle_19501" data-name="Rectangle 19501" transform="translate(620 3072)" fill="#fff" stroke="#707070" stroke-width="1" opacity="0">
      <rect width="140" height="120" stroke="none"/>
      <rect x="0.5" y="0.5" width="139" height="119" fill="none"/>
    </g>
    <path id="TrendDC" d="M115.706,42.352a1.256,1.256,0,0,1,0-2.513H124.3c.353-.01,8.89-.457,8.89-18.435,0-18.045-9.36-18.386-9.759-18.392H105.1c-2.163,0-2.563,1.228-2.63,1.552V28.351a1.259,1.259,0,0,1-.9,1.205l-.355.053a1.249,1.249,0,0,1-1.059-.579L84.884,5.123l-.05-.092A4.354,4.354,0,0,0,80.8,3.012H63.763l-.077.008a2.626,2.626,0,0,0-1.9.572,1.45,1.45,0,0,0-.4.881V33.825a1.258,1.258,0,0,1-1.255,1.258h-5.29c-9.449,0-12.041-10.25-12.148-10.684v-.015a1.258,1.258,0,0,1,.262-1.075,1.286,1.286,0,0,1,.99-.452H44a9.25,9.25,0,0,0,6.016-2.283c1.644-1.589,2.478-3.956,2.478-7.034,0-9.561-8.137-10.479-8.666-10.529H5.232a2.341,2.341,0,0,0,.008,4.678H13.3a1.26,1.26,0,0,1,1.258,1.256V38.461c.005.21.153,1.305,2.366,1.305s2.361-1.1,2.365-1.325V9.019a1.257,1.257,0,0,1,1.26-1.255h7.176a1.254,1.254,0,0,1,1.256,1.255V38.474c.012.233.185,1.3,2.348,1.3,2.3,0,2.35-1.237,2.353-1.29V24.113a1.256,1.256,0,0,1,2.423-.464A45.6,45.6,0,0,0,40.6,31.813c2.535,3.63,6.573,7.957,11.373,7.957H82.714c2.114,0,2.3-1.119,2.3-1.46V17.658a1.255,1.255,0,0,1,2.313-.682c6.532,10.18,13.923,21.448,14.754,22.281a4.083,4.083,0,0,0,2.446.514h.059c2.089-.063,2.508-1.11,2.583-1.4V11.812a3.944,3.944,0,0,1,1.135-2.665,4.957,4.957,0,0,1,3.676-1.322h8.249c.341,0,8.279.182,8.279,13.581,0,13.544-8.344,13.7-8.431,13.7h-1.705c-1.375-.01-3.967-1.033-3.967-4.851v-12.6a1.256,1.256,0,1,1,2.513,0v12.6c0,2.106,1.125,2.319,1.48,2.336h1.679c.237-.005,5.916-.214,5.916-11.185,0-5.661-1.569-8.369-2.889-9.644a4.752,4.752,0,0,0-2.882-1.422h-8.241a2.6,2.6,0,0,0-1.889.574,1.513,1.513,0,0,0-.409.9V38.483l-.007.136v.023c-.152,1.2-1.378,3.478-4.9,3.633l-.074,0c-.06,0-.22.01-.449.01a5.808,5.808,0,0,1-3.952-1.252c-1.078-1.078-8.171-11.975-12.773-19.109V38.317a3.935,3.935,0,0,1-1.13,2.648,4.784,4.784,0,0,1-3.238,1.285h0l-.194.033h-31c-7.336,0-12.815-7.448-15.777-12.728v8.928c0,1.316-1.023,3.8-4.866,3.8s-4.861-2.485-4.861-3.8v-28.2H21.806V38.462a3.7,3.7,0,0,1-1.085,2.49,5.143,5.143,0,0,1-3.795,1.33c-3.862,0-4.883-2.5-4.883-3.819V10.2H5.237A4.854,4.854,0,1,1,5.237.5H43.952a13.518,13.518,0,0,1,5.6,2.028c2.492,1.6,5.464,4.814,5.464,11.011,0,3.8-1.1,6.777-3.266,8.858a11.185,11.185,0,0,1-6.153,2.86c.936,2.508,3.478,7.311,9.252,7.311h4.029V4.465a3.928,3.928,0,0,1,1.127-2.648A4.947,4.947,0,0,1,63.6.5l.1-.01H81.22l.162.025a6.782,6.782,0,0,1,5.669,3.306L99.974,24.046V4.457l.007-.14c.147-1.325,1.412-3.825,5.135-3.825h18.347c.5,0,12.253.307,12.253,20.906s-10.931,20.945-11.4,20.947ZM67.325,35.083a1.258,1.258,0,0,1-1.258-1.258V25.2a1.257,1.257,0,0,1,1.258-1.256h10.44V18.915H67.325a1.26,1.26,0,0,1-1.258-1.258V9.014a1.258,1.258,0,0,1,1.258-1.258h11.7a1.258,1.258,0,0,1,0,2.515H68.579V16.4H79.022a1.258,1.258,0,0,1,1.258,1.258V25.2a1.259,1.259,0,0,1-1.258,1.258H68.579v6.113H79.022a1.258,1.258,0,0,1,0,2.515ZM34.933,18.915a1.258,1.258,0,0,1-1.258-1.258V9.006a1.257,1.257,0,0,1,1.258-1.258h8.143a5.312,5.312,0,0,1,4.731,5.582,5.271,5.271,0,0,1-4.638,5.576l-.128.008Zm1.255-8.653V16.4H42.96a2.785,2.785,0,0,0,2.333-3.069,2.793,2.793,0,0,0-2.358-3.075Zm101.86-2.478a2.317,2.317,0,1,1,.033,0ZM136.09,5.421a1.967,1.967,0,1,0,.562-1.409,1.958,1.958,0,0,0-.562,1.409Zm2.7,1.236-.724-.941h-.494v.941h-.409l-.012-2.483h.955a.775.775,0,0,1,.863.771.711.711,0,0,1-.456.694l.773,1.018Zm-1.228-1.305h.534a.409.409,0,1,0,0-.81h-.534Z" transform="translate(619.618 3110.508)" fill="#999"/>
  </g>
</svg>
