<svg xmlns="http://www.w3.org/2000/svg" width="58" height="58" viewBox="0 0 58 58">
  <g id="project" transform="translate(-10.98)">
    <ellipse id="Ellipse_140" data-name="Ellipse 140" cx="29" cy="27.727" rx="29" ry="27.727" transform="translate(10.98 2.546)" fill="#e6ebf2"/>
    <path id="Path_34891" data-name="Path 34891" d="M207.589,339.35a4.271,4.271,0,0,1,3.6,1.967.115.115,0,0,0,.088.053h.009a.115.115,0,0,0,.087-.039,6.256,6.256,0,0,1,6.455-1.865l-2.062-5.286h-7.3l-2.085,5.344A4.266,4.266,0,0,1,207.589,339.35Z" transform="translate(-172.139 -296.449)" fill="#d9eafc"/>
    <g id="Group_36059" data-name="Group 36059" transform="translate(31.853 37.424)">
      <path id="Path_34892" data-name="Path 34892" d="M209.422,334.179h-.951l-2.085,5.344a4.28,4.28,0,0,1,1.016-.166Z" transform="translate(-203.988 -334.179)" fill="#aec1ed"/>
      <path id="Path_34893" data-name="Path 34893" d="M187.016,382.446a.116.116,0,0,0,.114.1h.018a7.866,7.866,0,0,1,1.231-.1,7.762,7.762,0,0,1,5.308,2.09.116.116,0,0,0,.158,0,7.762,7.762,0,0,1,5.308-2.09,7.867,7.867,0,0,1,1.231.1h.018a.116.116,0,0,0,.114-.1,9.562,9.562,0,0,1,1.566-3.987,6.376,6.376,0,0,0-9.147.429,4.4,4.4,0,0,0-7.3-.146A9.557,9.557,0,0,1,187.016,382.446Z" transform="translate(-185.635 -371.814)" fill="#aec1ed"/>
    </g>
    <path id="Path_34894" data-name="Path 34894" d="M63.058,362.727a9.712,9.712,0,0,0-17.706-3.917,28.688,28.688,0,0,0,11.38,10.415A7.47,7.47,0,0,1,63.058,362.727Z" transform="translate(-30.39 -314.687)" fill="#49c2d3"/>
    <path id="Path_34895" data-name="Path 34895" d="M54.423,355.648a10.223,10.223,0,0,1,6.52,2.338,9.709,9.709,0,0,0-15.591.824q.344.578.716,1.138A10.253,10.253,0,0,1,54.423,355.648Z" transform="translate(-30.39 -314.404)" fill="#1a3251"/>
    <path id="Path_34896" data-name="Path 34896" d="M323.029,354.454a9.713,9.713,0,0,0-9.6,8.273,7.511,7.511,0,0,1,6.427,6.437,27.836,27.836,0,0,0,11.121-10.35A9.428,9.428,0,0,0,323.029,354.454Z" transform="translate(-266.131 -314.687)" fill="#49c2d3"/>
    <g id="Group_36060" data-name="Group 36060" transform="translate(26.668 39.767)">
      <path id="Path_34897" data-name="Path 34897" d="M323.616,354.472c-.194-.012-.39-.018-.587-.018a9.713,9.713,0,0,0-9.6,8.273,7.848,7.848,0,0,1,1.06.246A10.971,10.971,0,0,1,323.616,354.472Z" transform="translate(-293.38 -354.454)" fill="#49c2d3"/>
      <path id="Path_34898" data-name="Path 34898" d="M160.346,425.177a7.876,7.876,0,0,0-5.386,2.122,7.875,7.875,0,0,0-5.386-2.122,8.36,8.36,0,0,0-8.022,7.045,30.874,30.874,0,0,0,26.822-.154A8.227,8.227,0,0,0,160.346,425.177Z" transform="translate(-141.552 -417.004)" fill="#2fa9ba"/>
    </g>
    <path id="Path_34899" data-name="Path 34899" d="M151.167,426.16a8.217,8.217,0,0,1,3.083.6,7.9,7.9,0,0,0-12.558,5.188q.7.368,1.417.7A8.251,8.251,0,0,1,151.167,426.16Z" transform="translate(-115.133 -377.238)" fill="#1a3251"/>
    <g id="Group_36061" data-name="Group 36061" transform="translate(36.909 37.773)">
      <path id="Path_34900" data-name="Path 34900" d="M265.156,334.179h-1.747l.223,1.763a.867.867,0,0,0,1.72-.217Z" transform="translate(-259.484 -334.179)" fill="#aec1ed"/>
      <path id="Path_34901" data-name="Path 34901" d="M229.911,334.178l-.458,3.626a.867.867,0,0,0,.751.969.878.878,0,0,0,.11.007.867.867,0,0,0,.859-.758l.486-3.844h-1.747Z" transform="translate(-229.446 -334.178)" fill="#aec1ed"/>
    </g>
    <path id="Path_34902" data-name="Path 34902" d="M143.944,174.17q0-1.414.1-2.815c-2.78,1.566-4.7,5.054-4.7,9.092a11.643,11.643,0,0,0,1.533,5.882.511.511,0,0,0,.635.215,11.249,11.249,0,0,1,4.188-.827A37.711,37.711,0,0,1,143.944,174.17Z" transform="translate(-113.126 -152.091)" fill="#ea2f4a"/>
    <path id="Path_34903" data-name="Path 34903" d="M140.661,180.447a10.882,10.882,0,0,1,3.329-8.105c.015-.329.033-.658.057-.986-2.78,1.566-4.7,5.054-4.7,9.092a11.643,11.643,0,0,0,1.533,5.882.511.511,0,0,0,.635.215c.217-.089.438-.168.66-.242A11.649,11.649,0,0,1,140.661,180.447Z" transform="translate(-113.14 -152.091)" fill="#b7092b"/>
    <g id="Group_36062" data-name="Group 36062" transform="translate(35.714 19.215)">
      <path id="Path_34904" data-name="Path 34904" d="M319.3,171.355q.1,1.4.1,2.815a37.71,37.71,0,0,1-1.762,11.546,11.248,11.248,0,0,1,4.188.827.511.511,0,0,0,.635-.215A11.642,11.642,0,0,0,324,180.447C324,176.409,322.081,172.921,319.3,171.355Z" transform="translate(-306.092 -171.355)" fill="#ea2f4a"/>
      <path id="Path_34905" data-name="Path 34905" d="M217.708,307.125v2.664a.58.58,0,0,0,.578.578h7.694a.579.579,0,0,0,.578-.578v-2.664Z" transform="translate(-217.708 -291.436)" fill="#ea2f4a"/>
    </g>
    <path id="Path_34906" data-name="Path 34906" d="M219.673,309.789v-2.664h-1.965v2.664a.58.58,0,0,0,.578.578h1.965A.58.58,0,0,1,219.673,309.789Z" transform="translate(-182.231 -272.391)" fill="#b7092b"/>
    <path id="Path_34907" data-name="Path 34907" d="M194.141,90.318H180.077a38.611,38.611,0,0,0,.166,24.833.511.511,0,0,0,.48.336h12.771a.511.511,0,0,0,.48-.336,38.611,38.611,0,0,0,.166-24.833Z" transform="translate(-147.128 -80.247)" fill="#eef6ff"/>
    <path id="Path_34908" data-name="Path 34908" d="M181.882,115.151a38.611,38.611,0,0,1-.166-24.833h-1.638a38.611,38.611,0,0,0,.166,24.833.511.511,0,0,0,.48.336h1.638A.511.511,0,0,1,181.882,115.151Z" transform="translate(-147.307 -80.247)" fill="#d9eafc"/>
    <path id="Path_34909" data-name="Path 34909" d="M227.179,90.318v1.918a.579.579,0,0,0,.578.578h5.505a.579.579,0,0,0,.578-.578V90.318Z" transform="translate(-190.529 -80.101)" fill="#ea2a3d"/>
    <path id="Path_34910" data-name="Path 34910" d="M228.489,92.236V90.318h-1.31v1.918a.579.579,0,0,0,.578.578h1.31A.579.579,0,0,1,228.489,92.236Z" transform="translate(-190.588 -80.101)" fill="#b7092b"/>
    <path id="Path_34911" data-name="Path 34911" d="M201.87,0a.511.511,0,0,0-.322.114,22.035,22.035,0,0,0-6.288,9.17c-.163.416-.316.84-.463,1.269h14.144c-.147-.429-.3-.853-.463-1.269a22.034,22.034,0,0,0-6.288-9.17A.51.51,0,0,0,201.87,0Z" transform="translate(-161.89)" fill="#ea2f4a"/>
    <path id="Path_34912" data-name="Path 34912" d="M202.689.535q-.246-.217-.5-.421a.511.511,0,0,0-.644,0,22.035,22.035,0,0,0-6.288,9.17c-.163.416-.316.84-.463,1.269h1.638c.147-.429.3-.853.463-1.269A22.568,22.568,0,0,1,202.689.535Z" transform="translate(-161.977)" fill="#b7092b"/>
    <circle id="Ellipse_141" data-name="Ellipse 141" cx="5.896" cy="5.896" r="5.896" transform="translate(34.085 14.634)" fill="#445ea0"/>
    <circle id="Ellipse_142" data-name="Ellipse 142" cx="3.782" cy="3.782" r="3.782" transform="translate(36.198 16.73)" fill="#69cdff"/>
    <path id="Path_34913" data-name="Path 34913" d="M224.656,151.983a3.783,3.783,0,0,0,3.089,3.718,3.782,3.782,0,1,1,0-7.436A3.783,3.783,0,0,0,224.656,151.983Z" transform="translate(-187.111 -131.471)" fill="#52bbef"/>
    <path id="Path_34914" data-name="Path 34914" d="M85.771,130.006a.328.328,0,0,1-.3-.2,3.948,3.948,0,0,0-2.678-2.678.328.328,0,0,1,0-.606,3.949,3.949,0,0,0,2.678-2.678.328.328,0,0,1,.606,0,3.949,3.949,0,0,0,2.678,2.678.328.328,0,0,1,0,.606,3.948,3.948,0,0,0-2.678,2.678.328.328,0,0,1-.3.2Z" transform="translate(-63.323 -109.674)" fill="#ffd00d"/>
    <path id="Path_34915" data-name="Path 34915" d="M86.124,149.569a3.948,3.948,0,0,0-2.678-2.678.327.327,0,0,1-.171-.163c-.15.07-.309.14-.484.213a.328.328,0,0,0,0,.606,3.948,3.948,0,0,1,2.678,2.678.328.328,0,0,0,.606,0c.072-.175.143-.335.213-.484A.328.328,0,0,1,86.124,149.569Z" transform="translate(-63.323 -130.136)" fill="#ffaf10"/>
    <path id="Path_34916" data-name="Path 34916" d="M390.052,158.57a.288.288,0,0,1-.266-.178,3.47,3.47,0,0,0-2.354-2.354.288.288,0,0,1,0-.532,3.471,3.471,0,0,0,2.354-2.354.288.288,0,0,1,.532,0,3.471,3.471,0,0,0,2.354,2.354.288.288,0,0,1,0,.532,3.47,3.47,0,0,0-2.354,2.354.288.288,0,0,1-.266.178Z" transform="translate(-331.43 -135.69)" fill="#fff"/>
    <path id="Path_34917" data-name="Path 34917" d="M390.361,175.765a3.47,3.47,0,0,0-2.354-2.354.288.288,0,0,1-.15-.144c-.131.061-.272.123-.426.187a.288.288,0,0,0,0,.532,3.47,3.47,0,0,1,2.354,2.354.288.288,0,0,0,.532,0c.064-.154.126-.294.187-.426A.288.288,0,0,1,390.361,175.765Z" transform="translate(-331.68 -153.672)" fill="#d9eafc"/>
    <path id="Path_34918" data-name="Path 34918" d="M360.514,46.161a.336.336,0,0,1-.31-.207,4.043,4.043,0,0,0-2.743-2.743.336.336,0,0,1,0-.62,4.044,4.044,0,0,0,2.743-2.743.336.336,0,0,1,.62,0,4.044,4.044,0,0,0,2.743,2.743.336.336,0,0,1,0,.62,4.044,4.044,0,0,0-2.743,2.743.335.335,0,0,1-.31.207Z" transform="translate(-305.169 -35.059)" fill="#ff9518"/>
    <path id="Path_34919" data-name="Path 34919" d="M360.874,66.2a4.044,4.044,0,0,0-2.743-2.743.335.335,0,0,1-.175-.167c-.153.072-.317.144-.5.218a.336.336,0,0,0,0,.62,4.043,4.043,0,0,1,2.743,2.743.336.336,0,0,0,.62,0c.074-.179.146-.343.218-.5A.335.335,0,0,1,360.874,66.2Z" transform="translate(-305.224 -55.974)" fill="#ef8318"/>
  </g>
</svg>
