<svg xmlns="http://www.w3.org/2000/svg" width="60" height="58" viewBox="0 0 60 58">
  <g id="social-media_1_" data-name="social-media (1)" transform="translate(0 -5.621)">
    <path id="Path_34946" data-name="Path 34946" d="M30.341,22.673A29.019,29.019,0,0,0,1.774,56.689L25.68,80.3a29,29,0,1,0,4.661-57.625Z" transform="translate(-1.182 -17.052)" fill="#e6ebf2"/>
    <path id="Union_30" data-name="Union 30" d="M6.18,15.806A8.021,8.021,0,0,1,5.772.3a.183.183,0,0,0,0,.024,8.013,8.013,0,1,1,.41,15.483Z" transform="translate(38.939 7.277)" fill="#ea2f4a"/>
    <path id="Union_31" data-name="Union 31" d="M4.207,7.3A12.251,12.251,0,0,0,1.333,5.022,2.69,2.69,0,0,1,.307,1.451a2.662,2.662,0,0,1,.332-.5A2.7,2.7,0,0,1,4.018.345L4.4.558a.482.482,0,0,0,.467,0l.323-.18A2.741,2.741,0,0,1,8.934,1.4a2.69,2.69,0,0,1-1,3.618c-.292.169-.579.351-.86.544l0,0a12.405,12.405,0,0,0-1.3,1.025l-.015.014-.086.08-.041.038-.047.045-.112.107-.02.02c-.074.072-.147.146-.218.221a.367.367,0,0,0-.028.029l-.058.06-.09.1a.581.581,0,0,1-.427.185A.575.575,0,0,1,4.207,7.3Z" transform="translate(42.318 12.018)" fill="#eef6ff"/>
    <circle id="Ellipse_146" data-name="Ellipse 146" cx="7.755" cy="7.755" r="7.755" transform="translate(44.492 26.503)" fill="#49c2d3"/>
    <path id="Union_32" data-name="Union 32" d="M5.272,8.149,4.6,7.134a.316.316,0,0,0-.268-.147H1.089A1.09,1.09,0,0,1,0,5.9V1.087A1.091,1.091,0,0,1,1.061,0h6.8A1.09,1.09,0,0,1,8.947,1.087V5.9A1.088,1.088,0,0,1,7.86,6.987H6.893a.316.316,0,0,0-.268.147L5.956,8.149a.408.408,0,0,1-.684,0Z" transform="translate(47.647 30.554)" fill="#eef6ff"/>
    <path id="Path_34957" data-name="Path 34957" d="M115.838,393.832a1.557,1.557,0,0,1-1.86-.234l-.107-.1-2.357,1.361,4.681,4.9c.1-.05.206-.1.306-.16a4.617,4.617,0,0,0,1.69-6.307,4.667,4.667,0,0,0-.4-.585Z" transform="translate(-98.485 -343.279)" fill="#d3dcfb"/>
    <path id="Path_34958" data-name="Path 34958" d="M113.978,399.471l-.107-.1-2.357,1.361,4.681,4.9c.1-.05.206-.1.306-.161a4.6,4.6,0,0,0,1.724-1.749,3.168,3.168,0,0,1-2.386-4.015A1.557,1.557,0,0,1,113.978,399.471Z" transform="translate(-98.483 -349.152)" fill="#bec8f7"/>
    <path id="Path_34959" data-name="Path 34959" d="M73.121,409.592l-5.3,3.06a28.927,28.927,0,0,0,16.608,8.787Z" transform="translate(-59.797 -358.167)" fill="#eef6ff"/>
    <path id="Path_34960" data-name="Path 34960" d="M77.857,414.552l-4.736-4.961-5.3,3.06a29.122,29.122,0,0,0,6.3,5.061C73.991,414.1,77.857,414.552,77.857,414.552Z" transform="translate(-59.797 -358.167)" fill="#d3dcfb"/>
    <g id="Group_36067" data-name="Group 36067" transform="translate(0 33.577)">
      <path id="Path_34961" data-name="Path 34961" d="M4.943,262.537l-1.62-2.806a1.781,1.781,0,1,0-3.085,1.781l1.62,2.806Z" transform="translate(0 -258.84)" fill="#e9efff"/>
    </g>
    <path id="Path_34962" data-name="Path 34962" d="M6.789,268.775c.006.064.01.13.01.2a1.974,1.974,0,0,1-3.055,1.654l1.416,2.452L8.244,271.3Z" transform="translate(-3.301 -234.022)" fill="#d3dcfb"/>
    <path id="Union_35" data-name="Union 35" d="M0,3.927,6.8,0a1.8,1.8,0,0,0,.179.444L10.61,6.723h0l4.383,7.592a1.752,1.752,0,0,0,.294.376L7.643,19.105A28.908,28.908,0,0,1,0,3.927Z" transform="translate(0.568 35.571)" fill="#ea2f4a"/>
    <path id="Union_33" data-name="Union 33" d="M8.836,28.37.827,14.5A1.741,1.741,0,0,0,0,13.766,27.2,27.2,0,0,0,9.272,0l5.718,9.9h0l10.626,18.4A27.212,27.212,0,0,0,9.056,29.453,1.731,1.731,0,0,0,8.836,28.37Z" transform="translate(15.282 16.395)" fill="#eef6ff"/>
    <path id="Union_34" data-name="Union 34" d="M8.244,20.185,4.188,13.161h0L.236,6.314a1.748,1.748,0,0,1,.64-2.391L7.263.235A1.749,1.749,0,0,1,9.654.877l3.887,6.729h0l4.124,7.143a1.751,1.751,0,0,1-.641,2.391l-6.387,3.688a1.748,1.748,0,0,1-2.391-.642Z" transform="translate(6.983 29.89)" fill="#ea2f4a"/>
    <g id="Group_36070" data-name="Group 36070" transform="translate(9.768 32.778)">
      <path id="Path_34969" data-name="Path 34969" d="M84.461,256.046a.888.888,0,0,1-.445-1.656l3.77-2.176a.887.887,0,1,1,.887,1.537l-3.77,2.176A.883.883,0,0,1,84.461,256.046Z" transform="translate(-83.573 -252.095)" fill="#ff7186"/>
    </g>
    <g id="Group_36071" data-name="Group 36071" transform="translate(11.384 35.612)">
      <path id="Path_34970" data-name="Path 34970" d="M98.28,279.982a.888.888,0,0,1-.445-1.656l3.77-2.176a.887.887,0,0,1,.887,1.537l-3.77,2.176A.883.883,0,0,1,98.28,279.982Z" transform="translate(-97.392 -276.031)" fill="#ff7186"/>
    </g>
    <g id="Group_36072" data-name="Group 36072" transform="translate(12.999 38.445)">
      <path id="Path_34971" data-name="Path 34971" d="M112.1,303.917a.888.888,0,0,1-.445-1.656l3.77-2.177a.887.887,0,0,1,.887,1.537l-3.77,2.176A.883.883,0,0,1,112.1,303.917Z" transform="translate(-111.211 -299.966)" fill="#ff7186"/>
    </g>
    <g id="Group_36073" data-name="Group 36073" transform="translate(14.614 41.278)">
      <path id="Path_34972" data-name="Path 34972" d="M125.918,327.852a.888.888,0,0,1-.445-1.656l3.77-2.177a.887.887,0,0,1,.887,1.537l-3.77,2.176A.883.883,0,0,1,125.918,327.852Z" transform="translate(-125.03 -323.901)" fill="#ff7186"/>
    </g>
    <g id="Group_36074" data-name="Group 36074" transform="translate(16.229 44.111)">
      <path id="Path_34973" data-name="Path 34973" d="M139.737,351.787a.887.887,0,0,1-.445-1.656l3.77-2.177a.887.887,0,0,1,.887,1.537l-3.77,2.176A.884.884,0,0,1,139.737,351.787Z" transform="translate(-138.849 -347.836)" fill="#ff7186"/>
    </g>
    <g id="Group_36075" data-name="Group 36075" transform="translate(23.947 13.73)">
      <path id="Path_34974" data-name="Path 34974" d="M224.918,123.039a1.781,1.781,0,0,1-2.433-.652L206.024,93.875a1.781,1.781,0,0,1,3.085-1.781l16.461,28.512A1.781,1.781,0,0,1,224.918,123.039Z" transform="translate(-205.785 -91.203)" fill="#d3dcfb"/>
    </g>
    <path id="Path_34975" data-name="Path 34975" d="M212.892,102.065a2.085,2.085,0,0,1,1.927-.083l-5.71-9.89a1.781,1.781,0,1,0-3.085,1.781l5.826,10.091A2.087,2.087,0,0,1,212.892,102.065Z" transform="translate(-181.753 -77.472)" fill="#d3dcfb"/>
    <path id="Path_34976" data-name="Path 34976" d="M243.541,395.142c-1.841-2.824-5.061-6.074-8.943-5.612-6.638.79-23.086,1.668-10.614,14.5A28.9,28.9,0,0,0,243.541,395.142Z" transform="translate(-193.952 -340.44)" fill="#e6ebf2"/>
    <path id="Path_34977" data-name="Path 34977" d="M20.272,52.8c2.2,12.562,18.062-7.485,18.9-11.93a4.013,4.013,0,0,0-1.825-4.214A29.077,29.077,0,0,0,20.272,52.8Z" transform="translate(-17.873 -29.383)" fill="#e6ebf2"/>
  </g>
</svg>
