<svg id="Group_23226" data-name="Group 23226" xmlns="http://www.w3.org/2000/svg" width="24" height="24" viewBox="0 0 24 24">
  <g id="Rectangle_12692" data-name="Rectangle 12692" fill="#49c2d3" stroke="#707070" stroke-width="1" opacity="0">
    <rect width="24" height="24" stroke="none"/>
    <rect x="0.5" y="0.5" width="23" height="23" fill="none"/>
  </g>
  <g id="phone-call" transform="translate(1.998 1.998)">
    <g id="Group_23225" data-name="Group 23225">
      <path id="Path_26413" data-name="Path 26413" d="M20.017,14.68l-2.8-2.792a1.862,1.862,0,0,0-3.1.7,1.9,1.9,0,0,1-2.2,1.2A8.617,8.617,0,0,1,6.73,8.6a1.806,1.806,0,0,1,1.2-2.193,1.855,1.855,0,0,0,.7-3.091L5.831.523a2,2,0,0,0-2.7,0l-1.9,1.894c-1.9,1.994.2,7.278,4.9,11.964s9.99,6.879,11.988,4.885l1.9-1.894A1.988,1.988,0,0,0,20.017,14.68Z" transform="translate(-0.539 0)" fill="#49c2d3"/>
    </g>
  </g>
</svg>
