<svg id="Group_23226" data-name="Group 23226" xmlns="http://www.w3.org/2000/svg" width="24" height="24" viewBox="0 0 24 24">
  <g id="Rectangle_12692" data-name="Rectangle 12692" transform="translate(0)" fill="#49c2d3" stroke="#707070" stroke-width="1" opacity="0">
    <rect width="24" height="24" stroke="none"/>
    <rect x="0.5" y="0.5" width="23" height="23" fill="none"/>
  </g>
  <g id="email" transform="translate(2 -59.266)">
    <path id="Path_33146" data-name="Path 33146" d="M11.671,176.971a3,3,0,0,1-3.343,0L.133,171.5c-.045-.03-.09-.062-.133-.095v8.97a1.842,1.842,0,0,0,1.841,1.845H18.159A1.842,1.842,0,0,0,20,180.372V171.4c-.043.033-.088.064-.133.095Z" transform="translate(0 -102.951)" fill="#49c2d3"/>
    <path id="Path_33147" data-name="Path 33147" d="M.783,67.57l8.2,5.464a1.836,1.836,0,0,0,2.043,0l8.2-5.464A1.755,1.755,0,0,0,20,66.107a1.843,1.843,0,0,0-1.841-1.841H1.841A1.843,1.843,0,0,0,0,66.107,1.754,1.754,0,0,0,.783,67.57Z" fill="#49c2d3"/>
  </g>
</svg>
