<svg xmlns="http://www.w3.org/2000/svg" width="24" height="24" viewBox="0 0 24 24">
  <g id="Group_35175" data-name="Group 35175" transform="translate(-1145 -2996)">
    <g id="Rectangle_18566" data-name="Rectangle 18566" transform="translate(1145 2996)" fill="#fff" stroke="#707070" stroke-width="1" opacity="0">
      <rect width="24" height="24" stroke="none"/>
      <rect x="0.5" y="0.5" width="23" height="23" fill="none"/>
    </g>
    <g id="envelope" transform="translate(1147 2936.5)">
      <g id="Group_35174" data-name="Group 35174" transform="translate(0 64)">
        <g id="Group_35173" data-name="Group 35173">
          <path id="Path_32266" data-name="Path 32266" d="M7.061,65.217c2.745,2.325,7.562,6.415,8.977,7.69a.836.836,0,0,0,1.21,0c1.417-1.277,6.234-5.367,8.979-7.692a.416.416,0,0,0,.059-.575A1.655,1.655,0,0,0,24.978,64H8.31A1.655,1.655,0,0,0,7,64.642.416.416,0,0,0,7.061,65.217Z" transform="translate(-6.644 -64)" fill="#fff"/>
          <path id="Path_32267" data-name="Path 32267" d="M344.886,126.45a.415.415,0,0,0-.444.06c-1.8,1.524-4.166,3.537-5.953,5.074a.416.416,0,0,0,.011.641c1.66,1.329,4.161,3.158,5.967,4.458a.417.417,0,0,0,.66-.338v-9.517A.417.417,0,0,0,344.886,126.45Z" transform="translate(-325.126 -123.973)" fill="#fff"/>
          <path id="Path_32268" data-name="Path 32268" d="M.66,136.692c1.807-1.3,4.308-3.128,5.968-4.458a.416.416,0,0,0,.011-.641c-1.786-1.537-4.156-3.55-5.953-5.074a.417.417,0,0,0-.686.318v9.517a.417.417,0,0,0,.66.338Z" transform="translate(0 -123.982)" fill="#fff"/>
          <path id="Path_32269" data-name="Path 32269" d="M27.777,289.841c-1.744-1.248-4.958-3.575-6.876-5.132a.418.418,0,0,0-.536.009c-.376.328-.691.605-.915.806a1.687,1.687,0,0,1-2.326,0c-.223-.2-.538-.478-.914-.805a.415.415,0,0,0-.536-.009c-1.912,1.552-5.129,3.881-6.876,5.132a.417.417,0,0,0-.063.623A1.67,1.67,0,0,0,9.953,291H26.621a1.672,1.672,0,0,0,1.219-.535.417.417,0,0,0-.063-.623Z" transform="translate(-8.287 -275.997)" fill="#fff"/>
        </g>
      </g>
    </g>
  </g>
</svg>
