<svg xmlns="http://www.w3.org/2000/svg" xmlns:xlink="http://www.w3.org/1999/xlink" width="32" height="32" viewBox="0 0 32 32">
  <defs>
    <linearGradient id="linear-gradient" x1="0.828" y1="0.084" x2="0.121" y2="0.901" gradientUnits="objectBoundingBox">
      <stop offset="0" stop-color="#ea2f4a"/>
      <stop offset="0.498" stop-color="#49c2d3"/>
      <stop offset="1" stop-color="#1a3251"/>
    </linearGradient>
  </defs>
  <g id="Group_35307" data-name="Group 35307" transform="translate(-1146 -816)">
    <rect id="Rectangle_12823" data-name="Rectangle 12823" width="32" height="32" rx="4" transform="translate(1146 816)" fill="#e6ebf2"/>
    <g id="Group_23403" data-name="Group 23403" transform="translate(1150 820)">
      <path id="Path_27044" data-name="Path 27044" d="M476.739,211.451a1.411,1.411,0,1,0,1.411,1.411A1.411,1.411,0,0,0,476.739,211.451Zm-6.273,1.809a5.927,5.927,0,1,0,5.927,5.927A5.934,5.934,0,0,0,470.466,213.26Zm0,9.724a3.8,3.8,0,1,1,3.8-3.8A3.8,3.8,0,0,1,470.466,222.984Zm11.96-8.723a7.23,7.23,0,0,0-7.23-7.229h-9.541a7.229,7.229,0,0,0-7.229,7.229V223.8a7.229,7.229,0,0,0,7.229,7.229H475.2a7.23,7.23,0,0,0,7.23-7.229Zm-2.264,9.542a4.965,4.965,0,0,1-4.965,4.965h-9.541a4.965,4.965,0,0,1-4.965-4.965v-9.542a4.965,4.965,0,0,1,4.965-4.965H475.2a4.965,4.965,0,0,1,4.965,4.965Z" transform="translate(-458.426 -207.032)" fill="url(#linear-gradient)"/>
    </g>
  </g>
</svg>
