<svg xmlns="http://www.w3.org/2000/svg" width="32" height="32" viewBox="0 0 32 32">
  <g id="Group_35309" data-name="Group 35309" transform="translate(-1050 -816)">
    <rect id="Rectangle_12827" data-name="Rectangle 12827" width="32" height="32" rx="4" transform="translate(1050 816)" fill="#e6ebf2"/>
    <g id="Group_23406" data-name="Group 23406" transform="translate(1054 822)">
      <g id="Group_23386" data-name="Group 23386" transform="translate(0 0)">
        <path id="Path_27034" data-name="Path 27034" d="M84.98,478.886a9.759,9.759,0,0,1-2.424.7c.391-.066.966-.782,1.2-1.071a4.531,4.531,0,0,0,.807-1.488c.021-.042.037-.1-.005-.128a.135.135,0,0,0-.128.011,12.291,12.291,0,0,1-2.88,1.115.19.19,0,0,1-.2-.053,2.345,2.345,0,0,0-.252-.26,5.083,5.083,0,0,0-1.395-.865,4.806,4.806,0,0,0-2.14-.349,5.068,5.068,0,0,0-2.029.58,5.255,5.255,0,0,0-1.638,1.353,5.126,5.126,0,0,0-.978,1.982,5.44,5.44,0,0,0-.052,2.092c.016.117.006.133-.1.117a15.319,15.319,0,0,1-9.9-5.1c-.115-.133-.178-.133-.273.011a5.121,5.121,0,0,0,.856,6c.194.186.393.372.608.541a4.979,4.979,0,0,1-1.91-.541c-.115-.074-.174-.031-.183.1a3.059,3.059,0,0,0,.031.574,5.125,5.125,0,0,0,3.127,4.092,2.915,2.915,0,0,0,.634.2,5.565,5.565,0,0,1-1.873.059c-.137-.027-.189.043-.137.176a5.281,5.281,0,0,0,3.934,3.333c.179.031.357.031.536.074-.011.016-.021.016-.032.032-.441.682-1.974,1.188-2.687,1.441a9.522,9.522,0,0,1-4.082.528c-.22-.033-.266-.031-.325,0s-.008.091.063.148c.278.186.561.351.85.51a13.391,13.391,0,0,0,2.728,1.1,14.409,14.409,0,0,0,14.107-3.337c2.891-2.906,3.9-6.914,3.9-10.927,0-.157.183-.244.293-.326a9.586,9.586,0,0,0,1.911-2.021.591.591,0,0,0,.118-.387v-.021C85.07,478.822,85.078,478.842,84.98,478.886Z" transform="translate(-61.07 -476.489)" fill="#1a3251"/>
      </g>
      <g id="Group_23387" data-name="Group 23387" transform="translate(6.98 19.871)">
        <path id="Path_27035" data-name="Path 27035" d="M70.518,502.578Z" transform="translate(-70.518 -502.578)" fill="#1a3251" fill-rule="evenodd"/>
      </g>
      <g id="Group_23388" data-name="Group 23388" transform="translate(6.917 19.871)">
        <path id="Path_27036" data-name="Path 27036" d="M70.553,502.578c-.048,0-.6,0,0,0Z" transform="translate(-70.275 -502.578)" fill="#1a3251" fill-rule="evenodd"/>
      </g>
      <g id="Group_23389" data-name="Group 23389" transform="translate(7.904 19.876)">
        <path id="Path_27037" data-name="Path 27037" d="M71.589,502.609c0-.061.643,0,0,0C71.589,502.577,71.668,502.609,71.589,502.609Z" transform="translate(-71.589 -502.582)" fill="#1a3251" fill-rule="evenodd"/>
      </g>
      <g id="Group_23390" data-name="Group 23390" transform="translate(16.291 0.045)">
        <path id="Path_27038" data-name="Path 27038" d="M82.859,476.528a.132.132,0,0,1-.15,0Z" transform="translate(-82.709 -476.528)" fill="#1a3251" fill-rule="evenodd"/>
      </g>
    </g>
  </g>
</svg>
