<svg xmlns="http://www.w3.org/2000/svg" width="24" height="24" viewBox="0 0 24 24">
  <g id="Group_3385" data-name="Group 3385" transform="translate(-709 -954)">
    <g id="Rectangle_1742" data-name="Rectangle 1742" transform="translate(709 954)" fill="#49c2d3" stroke="#707070" stroke-width="1" opacity="0">
      <rect width="24" height="24" stroke="none"/>
      <rect x="0.5" y="0.5" width="23" height="23" fill="none"/>
    </g>
    <g id="mouse" transform="translate(648 956)">
      <path id="Path_1973" data-name="Path 1973" d="M76.625,0h-6.25A4.38,4.38,0,0,0,66,4.375V12.5a7.5,7.5,0,0,0,15,0V4.375A4.38,4.38,0,0,0,76.625,0ZM79.75,12.5a6.25,6.25,0,0,1-12.5,0V4.375A3.129,3.129,0,0,1,70.375,1.25h6.25A3.129,3.129,0,0,1,79.75,4.375Z" fill="#49c2d3"/>
      <path id="Path_1974" data-name="Path 1974" d="M232.25,99a1.25,1.25,0,0,0-1.25,1.25v2.5a1.25,1.25,0,0,0,2.5,0v-2.5A1.25,1.25,0,0,0,232.25,99Z" transform="translate(-158.75 -95.25)" fill="#49c2d3"/>
    </g>
  </g>
</svg>
