<svg xmlns="http://www.w3.org/2000/svg" width="56" height="56" viewBox="0 0 56 56">
  <g id="Group_36186" data-name="Group 36186" transform="translate(-397 -1556)">
    <rect id="Rectangle_19476" data-name="Rectangle 19476" width="56" height="56" rx="16" transform="translate(397 1556)" fill="#e6ebf2"/>
    <g id="digital-campaign" transform="translate(405.001 1553.999)">
      <ellipse id="Ellipse_162" data-name="Ellipse 162" cx="19.128" cy="19.128" rx="19.128" ry="19.128" transform="translate(1.312 11.001)" fill="#e6ebf2"/>
      <path id="Path_35858" data-name="Path 35858" d="M250.11,132.459H231.433v7.226a.392.392,0,0,1-.39.39H228.5v7.033a.529.529,0,0,0,.527.527H250.11a.529.529,0,0,0,.527-.527V132.986A.529.529,0,0,0,250.11,132.459Z" transform="translate(-210.664 -111.975)" fill="#91e0e8"/>
      <path id="Path_35859" data-name="Path 35859" d="M230.054,237.049v-7.033h-1.549v7.033a.529.529,0,0,0,.527.527h1.549A.529.529,0,0,1,230.054,237.049Z" transform="translate(-210.665 -201.916)" fill="#5dc1d8"/>
      <path id="Path_35860" data-name="Path 35860" d="M245.583,202.126a.43.43,0,0,0-.679,0l-2.74,3.251a.43.43,0,0,1-.679,0l-5.171-6.135a.43.43,0,0,0-.679,0l-7.129,8.458v.825a.529.529,0,0,0,.527.527h21.079a.529.529,0,0,0,.527-.527v-.4Z" transform="translate(-210.665 -173.391)" fill="#0f9390"/>
      <circle id="Ellipse_163" data-name="Ellipse 163" cx="1.976" cy="1.976" r="1.976" transform="translate(34.304 22.429)" fill="#fff"/>
      <path id="Path_35861" data-name="Path 35861" d="M440.486,159.352a1.977,1.977,0,0,1,1.43-1.9,1.976,1.976,0,1,0,0,3.8A1.977,1.977,0,0,1,440.486,159.352Z" transform="translate(-405.089 -134.947)" fill="#d9eafc"/>
      <path id="Path_35862" data-name="Path 35862" d="M20.847,40.693a.392.392,0,0,1-.39.39H.39a.392.392,0,0,1-.39-.39v-15.3A.392.392,0,0,1,.39,25H20.457a.392.392,0,0,1,.39.39Z" transform="translate(0 -12.905)" fill="#fe3745"/>
      <path id="Path_35863" data-name="Path 35863" d="M82.5,73.408c0-.429.3-.605.676-.39l6.614,3.818a.413.413,0,0,1,0,.781l-6.614,3.818c-.372.215-.676.039-.676-.39Z" transform="translate(-76.055 -57.091)" fill="#fff"/>
      <path id="Path_35864" data-name="Path 35864" d="M84.045,73.522l-.873-.5c-.372-.215-.676-.039-.676.39v7.637c0,.429.3.605.676.39l.873-.5Z" transform="translate(-76.055 -57.091)" fill="#d9eafc"/>
      <g id="Group_37066" data-name="Group 37066" transform="translate(1.212 13.227)">
        <path id="Path_35865" data-name="Path 35865" d="M226.616,41.387a.235.235,0,0,1-.234.234h-1.639a.235.235,0,0,1-.234-.234V39.747a.235.235,0,0,1,.234-.234h1.639a.235.235,0,0,1,.234.234v1.639Z" transform="translate(-208.192 -39.513)" fill="#b7092b"/>
        <path id="Path_35866" data-name="Path 35866" d="M226.616,78.885a.235.235,0,0,1-.234.234h-1.639a.235.235,0,0,1-.234-.234V77.245a.235.235,0,0,1,.234-.234h1.639a.235.235,0,0,1,.234.234v1.639Z" transform="translate(-208.192 -74.083)" fill="#b7092b"/>
        <path id="Path_35867" data-name="Path 35867" d="M226.616,116.383a.235.235,0,0,1-.234.234h-1.639a.235.235,0,0,1-.234-.234v-1.639a.235.235,0,0,1,.234-.234h1.639a.235.235,0,0,1,.234.234v1.639Z" transform="translate(-208.192 -108.654)" fill="#b7092b"/>
        <path id="Path_35868" data-name="Path 35868" d="M226.616,153.881a.235.235,0,0,1-.234.234h-1.639a.235.235,0,0,1-.234-.234v-1.639a.235.235,0,0,1,.234-.234h1.639a.235.235,0,0,1,.234.234v1.639Z" transform="translate(-208.192 -143.224)" fill="#b7092b"/>
        <path id="Path_35869" data-name="Path 35869" d="M226.616,191.379a.235.235,0,0,1-.234.234h-1.639a.235.235,0,0,1-.234-.234v-1.639a.235.235,0,0,1,.234-.234h1.639a.235.235,0,0,1,.234.234v1.639Z" transform="translate(-208.192 -177.795)" fill="#b7092b"/>
        <path id="Path_35870" data-name="Path 35870" d="M17.627,41.387a.235.235,0,0,1-.234.234H15.753a.235.235,0,0,1-.234-.234V39.747a.235.235,0,0,1,.234-.234h1.639a.235.235,0,0,1,.234.234Z" transform="translate(-15.519 -39.513)" fill="#b7092b"/>
        <path id="Path_35871" data-name="Path 35871" d="M17.627,78.885a.235.235,0,0,1-.234.234H15.753a.235.235,0,0,1-.234-.234V77.245a.235.235,0,0,1,.234-.234h1.639a.235.235,0,0,1,.234.234Z" transform="translate(-15.519 -74.083)" fill="#b7092b"/>
        <path id="Path_35872" data-name="Path 35872" d="M17.627,116.383a.235.235,0,0,1-.234.234H15.753a.235.235,0,0,1-.234-.234v-1.639a.235.235,0,0,1,.234-.234h1.639a.235.235,0,0,1,.234.234Z" transform="translate(-15.519 -108.654)" fill="#b7092b"/>
        <path id="Path_35873" data-name="Path 35873" d="M17.627,153.881a.235.235,0,0,1-.234.234H15.753a.235.235,0,0,1-.234-.234v-1.639a.235.235,0,0,1,.234-.234h1.639a.235.235,0,0,1,.234.234Z" transform="translate(-15.519 -143.224)" fill="#b7092b"/>
        <path id="Path_35874" data-name="Path 35874" d="M17.627,191.379a.235.235,0,0,1-.234.234H15.753a.235.235,0,0,1-.234-.234v-1.639a.235.235,0,0,1,.234-.234h1.639a.235.235,0,0,1,.234.234Z" transform="translate(-15.519 -177.795)" fill="#b7092b"/>
      </g>
      <path id="Path_35875" data-name="Path 35875" d="M41.008,254.956H27.43a.391.391,0,0,0-.39.39v5.172a19.041,19.041,0,0,0,2.361,5.05h4.925l3.184,3.184c.152.152.276.1.276-.114v-3.069h3.223a.392.392,0,0,0,.39-.39v-9.832A.392.392,0,0,0,41.008,254.956Z" transform="translate(-24.929 -224.909)" fill="#52bbef"/>
      <path id="Path_35876" data-name="Path 35876" d="M28.589,255.346a.391.391,0,0,1,.39-.39H27.43a.391.391,0,0,0-.39.39v5.172a19.009,19.009,0,0,0,1.549,3.7Z" transform="translate(-24.929 -224.909)" fill="#1e99d6"/>
      <g id="Group_37067" data-name="Group 37067" transform="translate(4.83 32.757)">
        <path id="Path_35877" data-name="Path 35877" d="M70.2,290.838H62.449a.586.586,0,0,1,0-1.171H70.2a.586.586,0,0,1,0,1.171Z" transform="translate(-61.863 -289.667)" fill="#fff"/>
        <path id="Path_35878" data-name="Path 35878" d="M70.2,316.95H62.449a.586.586,0,0,1,0-1.171H70.2a.586.586,0,0,1,0,1.171Z" transform="translate(-61.863 -313.74)" fill="#fff"/>
        <path id="Path_35879" data-name="Path 35879" d="M66.339,343.061h-3.89a.586.586,0,1,1,0-1.171h3.89a.586.586,0,1,1,0,1.171Z" transform="translate(-61.863 -337.813)" fill="#fff"/>
      </g>
      <path id="Path_35880" data-name="Path 35880" d="M241.7,352.558H229.4a.392.392,0,0,0-.39.39v9.315a.392.392,0,0,0,.39.39h9.593a19.072,19.072,0,0,0,3.1-1.661v-8.045A.392.392,0,0,0,241.7,352.558Z" transform="translate(-211.126 -314.891)" fill="#ef8318"/>
      <path id="Path_35881" data-name="Path 35881" d="M230.554,362.263v-9.315a.392.392,0,0,1,.39-.39H229.4a.392.392,0,0,0-.39.39v9.315a.392.392,0,0,0,.39.39h1.549A.392.392,0,0,1,230.554,362.263Z" transform="translate(-211.126 -314.891)" fill="#db722c"/>
      <path id="Path_35882" data-name="Path 35882" d="M285.025,384.546c0-.429.3-.605.676-.39l3.648,2.106a.413.413,0,0,1,0,.781l-3.648,2.106c-.372.215-.676.039-.676-.39Z" transform="translate(-262.772 -343.937)" fill="#fff"/>
    </g>
  </g>
</svg>
