<svg xmlns="http://www.w3.org/2000/svg" width="56" height="56" viewBox="0 0 56 56">
  <g id="Group_36186" data-name="Group 36186" transform="translate(-397 -1556)">
    <rect id="Rectangle_19476" data-name="Rectangle 19476" width="56" height="56" rx="16" transform="translate(397 1556)" fill="#e6ebf2"/>
    <g id="seo" transform="translate(405.242 1564.001)">
      <path id="Path_35766" data-name="Path 35766" d="M278.481,4.748a.679.679,0,1,1,0-1.359,3.132,3.132,0,0,0,2.585-1.015.485.485,0,0,0,.07-.555.882.882,0,0,0-.836-.461h-1.819a.68.68,0,1,1,0-1.359H280.3a2.277,2.277,0,0,1,2.062,1.226,1.838,1.838,0,0,1-.242,1.991,4.381,4.381,0,0,1-3.639,1.531Zm0,0" transform="translate(-256.013 0)" fill="#d25627"/>
      <path id="Path_35767" data-name="Path 35767" d="M169.063,4.836a4.407,4.407,0,0,1-3.639-1.523,1.836,1.836,0,0,1-.242-1.991A2.249,2.249,0,0,1,167.244.1h1.82a.679.679,0,1,1,0,1.359h-1.82a.9.9,0,0,0-.836.461.5.5,0,0,0,.07.554,3.137,3.137,0,0,0,2.585,1.023.68.68,0,0,1,.679.679.667.667,0,0,1-.679.664Zm0,0" transform="translate(-152.015 -0.088)" fill="#d25627"/>
      <path id="Path_35768" data-name="Path 35768" d="M214.5.105h-5.42a.68.68,0,0,0-.679.679v2.71a3.4,3.4,0,0,0,2.374,3.241,3.593,3.593,0,0,0,2.03,0,3.4,3.4,0,0,0,2.374-3.241V.785A.68.68,0,0,0,214.5.105Zm-.68,3.389a2.03,2.03,0,1,1-4.061,0V1.464h4.061Zm0,0" transform="translate(-192.034 -0.098)" fill="#e57e25"/>
      <path id="Path_35769" data-name="Path 35769" d="M229.862,17.5v2.03a2.03,2.03,0,1,1-4.061,0V17.5Zm0,0" transform="translate(-208.074 -16.138)" fill="#f0c419"/>
      <path id="Path_35770" data-name="Path 35770" d="M222.511,74.318l-1.624-3.233-.414-.836a.709.709,0,0,0-.6-.343.7.7,0,0,0-.6.343l-.414.836-1.616,3.233a.656.656,0,0,0,.031.656.692.692,0,0,0,.578.32H221.9a.693.693,0,0,0,.578-.32.676.676,0,0,0,.031-.656Zm-3.577-.375.937-1.874.937,1.874Zm0,0" transform="translate(-200.114 -64.448)" fill="#e57e25"/>
      <path id="Path_35771" data-name="Path 35771" d="M241.675,99.479H239.8l.937-1.874Zm0,0" transform="translate(-220.981 -89.983)" fill="#f0c419"/>
      <path id="Path_35772" data-name="Path 35772" d="M192.452,130.3h6.779a1.36,1.36,0,0,1,1.359,1.359v25.755H191.1V131.656a1.346,1.346,0,0,1,1.351-1.351Zm0,0" transform="translate(-176.084 -120.13)" fill="#49c2d3"/>
      <g id="Group_37015" data-name="Group 37015" transform="translate(17.93 12.416)">
        <path id="Path_35774" data-name="Path 35774" d="M230.23,165.361a1.83,1.83,0,0,1-1.827-1.828.469.469,0,1,1,.937,0,.894.894,0,0,0,.883.89.946.946,0,0,0,.9-.89c-.008-.359-.422-.593-1.093-.929-.718-.359-1.617-.8-1.617-1.773v-.016A1.882,1.882,0,0,1,230.222,159h.016a1.83,1.83,0,0,1,1.827,1.828.469.469,0,1,1-.937,0,.893.893,0,0,0-.882-.89.946.946,0,0,0-.9.89c.008.359.422.593,1.093.929.718.359,1.616.8,1.616,1.773v.016a1.883,1.883,0,0,1-1.812,1.812Zm0,0" transform="translate(-228.403 -159.004)" fill="#fff"/>
        <path id="Path_35775" data-name="Path 35775" d="M231.682,269.369h-2.03a1.15,1.15,0,0,1-1.148-1.148v-4.069A1.15,1.15,0,0,1,229.652,263h2.03a.469.469,0,0,1,0,.937h-2.03a.21.21,0,0,0-.211.211v4.069a.21.21,0,0,0,.211.211h2.03a.469.469,0,0,1,0,.937Zm0,0" transform="translate(-228.496 -254.882)" fill="#fff"/>
        <path id="Path_35776" data-name="Path 35776" d="M231.682,298.742h-2.71a.469.469,0,0,1,0-.937h2.71a.469.469,0,1,1,0,.937Zm0,0" transform="translate(-228.496 -286.966)" fill="#fff"/>
        <path id="Path_35777" data-name="Path 35777" d="M230.23,373.568a1.83,1.83,0,0,1-1.827-1.827v-2.71a1.827,1.827,0,1,1,3.655,0v2.71A1.83,1.83,0,0,1,230.23,373.568Zm0-5.42a.89.89,0,0,0-.89.89v2.71a.89.89,0,0,0,1.781,0v-2.71A.885.885,0,0,0,230.23,368.148Zm0,0" transform="translate(-228.403 -350.944)" fill="#fff"/>
      </g>
      <path id="Path_35778" data-name="Path 35778" d="M1.461,477.406H38.055a1.359,1.359,0,1,1,0,2.717H1.461a1.359,1.359,0,1,1,0-2.717Zm0,0" transform="translate(0 -440.125)" fill="#303233"/>
      <path id="Path_35779" data-name="Path 35779" d="M348.652,217h6.779a1.36,1.36,0,0,1,1.359,1.359V237.34H347.3V218.363A1.353,1.353,0,0,1,348.652,217Zm0,0" transform="translate(-320.086 -200.058)" fill="#1a3251"/>
      <path id="Path_35781" data-name="Path 35781" d="M36.253,303.8h6.779a1.36,1.36,0,0,1,1.359,1.359v12.2H34.9v-12.2A1.353,1.353,0,0,1,36.253,303.8Zm0,0" transform="translate(-32.083 -280.081)" fill="#ea2f4a"/>
      <path id="Path_35783" data-name="Path 35783" d="M399.981,6.2a.68.68,0,0,1-.68-.679V.785a.68.68,0,0,1,1.359,0v4.74A.68.68,0,0,1,399.981,6.2Zm0,0" transform="translate(-368.025 -0.098)" fill="#1a3251"/>
      <path id="Path_35784" data-name="Path 35784" d="M385.46,2.768a.673.673,0,0,1-.476-.2l-.875-.875-.883.875a.679.679,0,0,1-.96-.961L383.625.253a.678.678,0,0,1,.961,0l1.359,1.359a.686.686,0,0,1,.149.742.7.7,0,0,1-.633.414Zm0,0" transform="translate(-352.145 -0.05)" fill="#1a3251"/>
      <path id="Path_35785" data-name="Path 35785" d="M399.981,98.222a.68.68,0,0,1-.68-.679V96.184a.68.68,0,0,1,1.359,0v1.359A.68.68,0,0,1,399.981,98.222Zm0,0" transform="translate(-368.025 -88.047)" fill="#1a3251"/>
      <path id="Path_35786" data-name="Path 35786" d="M87.582,151.674a.68.68,0,0,1-.679-.679v-2.71a.679.679,0,1,1,1.359,0v2.71A.68.68,0,0,1,87.582,151.674Zm0,0" transform="translate(-80.022 -136.079)" fill="#ea2f4a"/>
      <path id="Path_35787" data-name="Path 35787" d="M73.153,150.268a.673.673,0,0,1-.476-.2L71.8,149.2l-.875.875a.679.679,0,0,1-.961-.961l1.359-1.359a.678.678,0,0,1,.961,0l1.359,1.359a.686.686,0,0,1,.149.742A.722.722,0,0,1,73.153,150.268Zm0,0" transform="translate(-64.235 -136.032)" fill="#ea2f4a"/>
      <path id="Path_35788" data-name="Path 35788" d="M87.582,221.752a.68.68,0,0,1-.679-.679v-3.389a.679.679,0,1,1,1.359,0v3.389A.68.68,0,0,1,87.582,221.752Zm0,0" transform="translate(-80.022 -200.058)" fill="#ea2f4a"/>
    </g>
  </g>
</svg>
