<svg xmlns="http://www.w3.org/2000/svg" width="56" height="56" viewBox="0 0 56 56">
  <g id="Group_36186" data-name="Group 36186" transform="translate(-397 -1556)">
    <rect id="Rectangle_19476" data-name="Rectangle 19476" width="56" height="56" rx="16" transform="translate(397 1556)" fill="#e6ebf2"/>
    <g id="social-media_2_" data-name="social-media (2)" transform="translate(402.748 1558.8)">
      <path id="Path_35732" data-name="Path 35732" d="M162.949,113.162H148.676a2.687,2.687,0,0,1-2.676-2.7V77.2a2.687,2.687,0,0,1,2.676-2.7h14.273a2.687,2.687,0,0,1,2.676,2.7v33.267A2.687,2.687,0,0,1,162.949,113.162Z" transform="translate(-133.759 -68.631)" fill="#49c2d3"/>
      <path id="Path_35733" data-name="Path 35733" d="M152.229,113.162h-3.553a2.687,2.687,0,0,1-2.676-2.7V77.2a2.687,2.687,0,0,1,2.676-2.7h3.553a2.687,2.687,0,0,0-2.676,2.7v33.267A2.687,2.687,0,0,0,152.229,113.162Z" transform="translate(-133.81 -68.631)" fill="#2cb3cd"/>
      <path id="Path_35734" data-name="Path 35734" d="M178.948,124.781h-3.916a.892.892,0,0,1-.892-.892v-3.916a.892.892,0,0,1,.892-.892h3.916a.892.892,0,0,1,.892.892v3.916A.892.892,0,0,1,178.948,124.781Zm8.2-.892v-3.916a.892.892,0,0,0-.892-.892h-3.916a.892.892,0,0,0-.892.892v3.916a.892.892,0,0,0,.892.892h3.916A.892.892,0,0,0,187.152,123.889Zm-7.312,7.681v-3.916a.892.892,0,0,0-.892-.892h-3.916a.892.892,0,0,0-.892.892v3.916a.892.892,0,0,0,.892.892h3.916A.892.892,0,0,0,179.84,131.57Zm7.312,0v-3.916a.892.892,0,0,0-.892-.892h-3.916a.892.892,0,0,0-.892.892v3.916a.892.892,0,0,0,.892.892h3.916A.892.892,0,0,0,187.152,131.57ZM179.84,116.4v-3.916a.892.892,0,0,0-.892-.892h-3.916a.892.892,0,0,0-.892.892V116.4a.892.892,0,0,0,.892.892h3.916A.892.892,0,0,0,179.84,116.4Zm0-7.137v-3.916a.892.892,0,0,0-.892-.892h-3.916a.892.892,0,0,0-.892.892v3.916a.892.892,0,0,0,.892.892h3.916A.892.892,0,0,0,179.84,109.268Zm9.1-8.376a.892.892,0,0,0-.892-.892h-3.916a.892.892,0,1,0,0,1.784h3.916A.892.892,0,0,0,188.936,100.892ZM187.152,116.4v-3.916a.892.892,0,0,0-.892-.892h-3.916a.892.892,0,0,0-.892.892V116.4a.892.892,0,0,0,.892.892h3.916A.892.892,0,0,0,187.152,116.4Z" transform="translate(-159.387 -91.553)" fill="#a6e0ec"/>
      <path id="Path_35735" data-name="Path 35735" d="M156.118,67H141.845a3.362,3.362,0,0,0-3.345,3.371v33.258A3.362,3.362,0,0,0,141.845,107h14.273a3.362,3.362,0,0,0,3.345-3.371V70.371A3.362,3.362,0,0,0,156.118,67Zm2.007,36.629a2.017,2.017,0,0,1-2.007,2.022H141.845a2.017,2.017,0,0,1-2.007-2.022V70.371a2.017,2.017,0,0,1,2.007-2.022h14.273a2.017,2.017,0,0,1,2.007,2.022Z" transform="translate(-126.928 -61.8)" fill="#1a3251"/>
      <path id="Path_35740" data-name="Path 35740" d="M92.043,253.381h-10.7A1.338,1.338,0,0,1,80,252.043v-10.7A1.338,1.338,0,0,1,81.338,240h10.7a1.338,1.338,0,0,1,1.338,1.338v10.7A1.338,1.338,0,0,1,92.043,253.381Z" transform="translate(-73.731 -219.166)" fill="#0956c6"/>
      <path id="Path_35741" data-name="Path 35741" d="M83.363,253.381H81.338A1.338,1.338,0,0,1,80,252.043v-10.7A1.338,1.338,0,0,1,81.338,240h2.025a1.338,1.338,0,0,0-1.338,1.338v10.7A1.338,1.338,0,0,0,83.363,253.381Z" transform="translate(-73.747 -219.166)" fill="#0a4499"/>
      <path id="Path_35742" data-name="Path 35742" d="M302.043,313.381h-10.7A1.338,1.338,0,0,1,290,312.043v-10.7A1.338,1.338,0,0,1,291.338,300h10.7a1.338,1.338,0,0,1,1.338,1.338v10.7A1.338,1.338,0,0,1,302.043,313.381Z" transform="translate(-264.761 -273.712)" fill="#ea2f4a"/>
      <path id="Path_35743" data-name="Path 35743" d="M293.661,313.381h-2.323A1.338,1.338,0,0,1,290,312.043v-10.7A1.338,1.338,0,0,1,291.338,300h2.323a1.338,1.338,0,0,0-1.338,1.338v10.7A1.338,1.338,0,0,0,293.661,313.381Z" transform="translate(-264.878 -273.712)" fill="#ef2240"/>
      <path id="Path_35748" data-name="Path 35748" d="M131.248,285.231l4.583,3.014a.273.273,0,0,1,0,.458l-4.583,3.014a.278.278,0,0,1-.432-.229V285.46A.278.278,0,0,1,131.248,285.231Zm-13.125-4.339v2.676a.9.9,0,0,1-.9.892h-.993v2.35a.362.362,0,0,1-.616.252l-2.633-2.6H110.9a.9.9,0,0,1-.9-.892v-2.676a.9.9,0,0,1,.9-.892h6.318A.9.9,0,0,1,118.123,280.892Z" transform="translate(-101.122 -255.576)" fill="#fff"/>
    </g>
  </g>
</svg>
