<svg id="Group_37063" data-name="Group 37063" xmlns="http://www.w3.org/2000/svg" width="56" height="56" viewBox="0 0 56 56">
  <rect id="Rectangle_19479" data-name="Rectangle 19479" width="56" height="56" rx="16" fill="#e6ebf2"/>
  <g id="illustration" transform="translate(8 3.364)">
    <g id="Group_37031" data-name="Group 37031" transform="translate(0 4.635)">
      <g id="Group_37017" data-name="Group 37017" transform="translate(16.511 31.505)">
        <g id="Group_37016" data-name="Group 37016">
          <path id="Path_35789" data-name="Path 35789" d="M211.336,407.9h6.979v5.638h-6.979Z" transform="translate(-211.336 -407.902)" fill="#b8c6d9"/>
        </g>
      </g>
      <g id="Group_37018" data-name="Group 37018" transform="translate(16.511 31.505)">
        <path id="Path_35790" data-name="Path 35790" d="M211.336,407.9h2.524v5.638h-2.524Z" transform="translate(-211.336 -407.902)" fill="#b8c6d9"/>
      </g>
      <g id="Group_37019" data-name="Group 37019" transform="translate(12.193 37.063)">
        <path id="Path_35791" data-name="Path 35791" d="M170.881,481.253h-14a.8.8,0,0,1-.8-.8v-.6a.8.8,0,0,1,.8-.8h14a.8.8,0,0,1,.8.8v.6A.8.8,0,0,1,170.881,481.253Z" transform="translate(-156.072 -479.04)" fill="#1a3251"/>
      </g>
      <g id="Group_37020" data-name="Group 37020" transform="translate(12.193 37.063)">
        <path id="Path_35792" data-name="Path 35792" d="M160.1,480.448v-.6a.8.8,0,0,1,.8-.8h-4.024a.8.8,0,0,0-.8.8v.6a.8.8,0,0,0,.8.8H160.9A.8.8,0,0,1,160.1,480.448Z" transform="translate(-156.072 -479.04)" fill="#1a3251"/>
      </g>
      <g id="Group_37021" data-name="Group 37021" transform="translate(0 27.586)">
        <path id="Path_35793" data-name="Path 35793" d="M0,360.122a1.61,1.61,0,0,0,1.61,1.61H38.39a1.61,1.61,0,0,0,1.61-1.61v-2.39H0Z" transform="translate(0 -357.732)" fill="#1a3251"/>
      </g>
      <g id="Group_37022" data-name="Group 37022" transform="translate(0 27.586)">
        <path id="Path_35794" data-name="Path 35794" d="M4.064,360.122v-2.39H0v2.39a1.61,1.61,0,0,0,1.61,1.61H5.674A1.61,1.61,0,0,1,4.064,360.122Z" transform="translate(0 -357.732)" fill="#1a3251"/>
      </g>
      <g id="Group_37023" data-name="Group 37023" transform="translate(17.965 28.951)">
        <path id="Path_35795" data-name="Path 35795" d="M233.44,376.378h-2.9a.586.586,0,1,1,0-1.172h2.9a.586.586,0,1,1,0,1.172Z" transform="translate(-229.957 -375.206)" fill="#a2c7f8"/>
      </g>
      <g id="Group_37024" data-name="Group 37024" transform="translate(0 3.701)">
        <path id="Path_35796" data-name="Path 35796" d="M40,75.9H0V53.218a1.207,1.207,0,0,1,1.207-1.207H38.793A1.207,1.207,0,0,1,40,53.218V75.9Z" transform="translate(0 -52.011)" fill="#1a3251"/>
      </g>
      <path id="Path_35797" data-name="Path 35797" d="M2.53,73.768a.4.4,0,0,1-.4-.4V54.541a.4.4,0,0,1,.4-.4H4.064v-.92a1.207,1.207,0,0,1,1.207-1.207H1.207A1.207,1.207,0,0,0,0,53.218V75.9H4.064V73.768Z" transform="translate(0 -48.31)" fill="#1a3251"/>
      <path id="Path_35798" data-name="Path 35798" d="M62.576,79.245H27.636a.4.4,0,0,0-.4.4V98.472a.4.4,0,0,0,.4.4h9.652l.135-.078,1.549-2.684H41.3a.4.4,0,0,0,.4-.4V91.39l2.555-4.426a.381.381,0,0,1,.66,0L50.6,96.809l.03,0,.029.005,4.554-7.887a.381.381,0,0,1,.66,0l5.7,9.874.135.078h.87a.4.4,0,0,0,.4-.4V79.647A.4.4,0,0,0,62.576,79.245Z" transform="translate(-25.106 -73.416)" fill="#fed2a4"/>
      <g id="Group_37025" data-name="Group 37025" transform="translate(30.06 8.934)">
        <circle id="Ellipse_156" data-name="Ellipse 156" cx="2.093" cy="2.093" r="2.093" fill="#fe9901"/>
      </g>
      <g id="Group_37026" data-name="Group 37026" transform="translate(30.06 8.934)">
        <path id="Path_35799" data-name="Path 35799" d="M386.382,121.079a2.093,2.093,0,0,1,1.288-1.932,2.093,2.093,0,1,0,0,3.864A2.093,2.093,0,0,1,386.382,121.079Z" transform="translate(-384.772 -118.986)" fill="#fb8801"/>
      </g>
      <g id="Group_37030" data-name="Group 37030" transform="translate(12.182 0)">
        <g id="Group_37027" data-name="Group 37027" transform="translate(12.087 15.237)">
          <path id="Path_35801" data-name="Path 35801" d="M316.4,199.9l-5.768,9.991h12.332L317.2,199.9A.459.459,0,0,0,316.4,199.9Z" transform="translate(-310.636 -199.674)" fill="#49c2d3"/>
        </g>
        <path id="Path_35802" data-name="Path 35802" d="M327.9,209.848l4.913-8.51-.828-1.433a.459.459,0,0,0-.8,0l-4.516,7.821Z" transform="translate(-313.332 -184.438)" fill="#2fa9ba"/>
        <path id="Path_35803" data-name="Path 35803" d="M166.442,235.793h-.09l-.657,1.139a.458.458,0,0,1-.793,0l-.633-1.1a.812.812,0,0,0-1.406,0l-1.027,1.779a.458.458,0,0,1-.793,0l-.78-1.352v3.429a.325.325,0,0,1-.324.324h-2.369l-1.64,2.84H170.52Z" transform="translate(-155.928 -217.398)" fill="#49c2d3"/>
        <g id="Group_37028" data-name="Group 37028" transform="translate(0 19.021)">
          <path id="Path_35804" data-name="Path 35804" d="M211.388,251.375h0l1.034-1.791a.528.528,0,0,1-.321-.248l-.713-1.234Z" transform="translate(-207.055 -248.102)" fill="#2fa9ba"/>
          <path id="Path_35805" data-name="Path 35805" d="M159.935,293.6h-2.369l-1.64,2.84h2.506l1.666-2.886A.32.32,0,0,1,159.935,293.6Z" transform="translate(-155.926 -290.006)" fill="#2fa9ba"/>
        </g>
        <g id="Group_37029" data-name="Group 37029" transform="translate(12.917)">
          <path id="Path_35806" data-name="Path 35806" d="M329.388,45.211l-.174-.064-7.948,7.948.01.107,2.187,2.187.1.005,7.948-7.948-.146-.257Z" transform="translate(-321.266 -41.982)" fill="#8db3df"/>
          <path id="Path_35807" data-name="Path 35807" d="M443.3,6.159l-1.321-1.321a.692.692,0,0,0-.978,0l-1.688,1.688.132.243,2,2,.163.053L443.3,7.138a.692.692,0,0,0,0-.978Z" transform="translate(-430.091 -4.635)" fill="#8db3df"/>
        </g>
        <path id="Path_35808" data-name="Path 35808" d="M214.749,174.845a.459.459,0,0,0-.8,0l-2.566,4.444v1.068l.713,1.234a.536.536,0,0,0,.929,0l1.027-1.779a.734.734,0,0,1,1.271,0l.633,1.1a.536.536,0,0,0,.929,0l.68-1.178Z" transform="translate(-207.055 -161.336)" fill="#fff"/>
        <path id="Path_35809" data-name="Path 35809" d="M214.749,174.845a.459.459,0,0,0-.8,0l-2.566,4.444v1.068l.713,1.234a.528.528,0,0,0,.321.248l3.182-5.512Z" transform="translate(-207.055 -161.336)" fill="#eaf6ff"/>
      </g>
    </g>
    <g id="Group_37045" data-name="Group 37045" transform="translate(4.628 12.925)">
      <g id="Group_37032" data-name="Group 37032" transform="translate(0 0)">
        <path id="Path_35810" data-name="Path 35810" d="M70.4,110.744H60.04a.8.8,0,0,0-.8.8v2.739l.192.08H70.993l.207-.08v-2.739A.8.8,0,0,0,70.4,110.744Z" transform="translate(-59.235 -110.744)" fill="#ea2f4a"/>
      </g>
      <g id="Group_37034" data-name="Group 37034" transform="translate(0 3.544)">
        <path id="Path_35812" data-name="Path 35812" d="M70.8,166.973H59.637a.4.4,0,0,1-.4-.4v-10.46H71.2v10.46A.4.4,0,0,1,70.8,166.973Z" transform="translate(-59.235 -156.111)" fill="#fff"/>
      </g>
      <g id="Group_37035" data-name="Group 37035" transform="translate(0 3.544)">
        <path id="Path_35813" data-name="Path 35813" d="M61.757,166.571v-10.46H59.235v10.46a.4.4,0,0,0,.4.4h2.522A.4.4,0,0,1,61.757,166.571Z" transform="translate(-59.235 -156.111)" fill="#eaf6ff"/>
      </g>
      <g id="Group_37041" data-name="Group 37041" transform="translate(1.426 5.956)">
        <g id="Group_37036" data-name="Group 37036" transform="translate(0 4.125)">
          <path id="Path_35814" data-name="Path 35814" d="M86.017,240.954H78.076a.586.586,0,1,1,0-1.172h7.941a.586.586,0,0,1,0,1.172Z" transform="translate(-77.49 -239.782)" fill="#8db3df"/>
        </g>
        <g id="Group_37037" data-name="Group 37037" transform="translate(4.903 3.461)">
          <circle id="Ellipse_157" data-name="Ellipse 157" cx="1.25" cy="1.25" r="1.25" fill="#49c2d3"/>
        </g>
        <g id="Group_37040" data-name="Group 37040">
          <g id="Group_37038" data-name="Group 37038" transform="translate(0 0.664)">
            <path id="Path_35815" data-name="Path 35815" d="M86.017,196.656H78.076a.586.586,0,1,1,0-1.172h7.941a.586.586,0,0,1,0,1.172Z" transform="translate(-77.49 -195.484)" fill="#8db3df"/>
          </g>
          <g id="Group_37039" data-name="Group 37039" transform="translate(1.683)">
            <circle id="Ellipse_158" data-name="Ellipse 158" cx="1.25" cy="1.25" r="1.25" fill="#49c2d3"/>
          </g>
        </g>
      </g>
      <g id="Group_37042" data-name="Group 37042" transform="translate(9.439 1.067)">
        <circle id="Ellipse_159" data-name="Ellipse 159" cx="0.586" cy="0.586" r="0.586" fill="#ffbd86"/>
      </g>
      <g id="Group_37043" data-name="Group 37043" transform="translate(7.825 1.067)">
        <circle id="Ellipse_160" data-name="Ellipse 160" cx="0.586" cy="0.586" r="0.586" fill="#ffbd86"/>
      </g>
      <g id="Group_37044" data-name="Group 37044" transform="translate(6.21 1.067)">
        <circle id="Ellipse_161" data-name="Ellipse 161" cx="0.586" cy="0.586" r="0.586" fill="#ffbd86"/>
      </g>
    </g>
    <g id="Group_37051" data-name="Group 37051" transform="translate(23.583 4.636)">
      <g id="Group_37046" data-name="Group 37046" transform="translate(1.516 0)">
        <path id="Path_35816" data-name="Path 35816" d="M442.535,5.4l-.557-.557a.692.692,0,0,0-.978,0l-1.688,1.688,1.046,1.046Z" transform="translate(-430.09 -4.636)" fill="#799fca"/>
        <path id="Path_35817" data-name="Path 35817" d="M323.644,52.81l6.617-6.617-1.046-1.046-7.948,7.948.009.107,2.187,2.187.1.005,1.046-1.046-.969-.969A.4.4,0,0,1,323.644,52.81Z" transform="translate(-321.267 -41.982)" fill="#799fca"/>
      </g>
      <g id="Group_37050" data-name="Group 37050" transform="translate(0 1.894)">
        <g id="Group_37047" data-name="Group 37047" transform="translate(0 9.219)">
          <path id="Path_35818" data-name="Path 35818" d="M303.383,146.877a.692.692,0,0,0-.151.228l-1.348,3.3a.207.207,0,0,0,.271.271l3.3-1.348a.692.692,0,0,0,.228-.151Z" transform="translate(-301.867 -146.877)" fill="#647fa0"/>
        </g>
        <g id="Group_37048" data-name="Group 37048" transform="translate(9.459 0)">
          <path id="Path_35819" data-name="Path 35819" d="M0,0H1.8V3.252H0Z" transform="translate(0 1.274) rotate(-45)" fill="#c4e2ff"/>
        </g>
        <g id="Group_37049" data-name="Group 37049" transform="translate(9.459 0)">
          <path id="Path_35820" data-name="Path 35820" d="M0,0H1.8V1.48H0Z" transform="translate(0 1.274) rotate(-45)" fill="#b3dafe"/>
        </g>
      </g>
    </g>
  </g>
</svg>
