<svg id="Group_36188" data-name="Group 36188" xmlns="http://www.w3.org/2000/svg" width="56" height="56" viewBox="0 0 56 56">
  <rect id="Rectangle_19479" data-name="Rectangle 19479" width="56" height="56" rx="16" fill="#e6ebf2"/>
  <g id="Icons" transform="translate(4 4)">
    <g id="Group_36950" data-name="Group 36950" transform="translate(19.615 33.769)">
      <g id="Group_36949" data-name="Group 36949">
        <path id="Path_35713" data-name="Path 35713" d="M34.769,53.308H26l.438-2.192L27.462,46h5.846l1.023,5.115Z" transform="translate(-26 -46)" fill="#49c2d3"/>
      </g>
    </g>
    <g id="Group_36952" data-name="Group 36952" transform="translate(20.054 33.769)">
      <g id="Group_36951" data-name="Group 36951">
        <path id="Path_35714" data-name="Path 35714" d="M34.492,51.115H26.6L27.623,46h5.846Z" transform="translate(-26.6 -46)" fill="#0082aa"/>
      </g>
    </g>
    <g id="Group_36954" data-name="Group 36954" transform="translate(12.308 41.077)">
      <g id="Group_36953" data-name="Group 36953">
        <path id="Path_35715" data-name="Path 35715" d="M38.654,58.923H16.731A.731.731,0,0,1,16,58.192v-.731A1.461,1.461,0,0,1,17.462,56H37.923a1.461,1.461,0,0,1,1.462,1.462v.731A.731.731,0,0,1,38.654,58.923Z" transform="translate(-16 -56)" fill="#1a3251"/>
      </g>
    </g>
    <g id="Group_36956" data-name="Group 36956" transform="translate(4 12.577)">
      <g id="Group_36955" data-name="Group 36955">
        <path id="Path_35716" data-name="Path 35716" d="M44,18.462V41.115a1.45,1.45,0,0,1-1.429,1.462H5.429A1.45,1.45,0,0,1,4,41.115V18.462A1.45,1.45,0,0,1,5.429,17H42.571A1.45,1.45,0,0,1,44,18.462Z" transform="translate(-4 -17)" fill="#1a3251"/>
      </g>
    </g>
    <g id="Group_36958" data-name="Group 36958" transform="translate(5.462 14.484)">
      <g id="Group_36957" data-name="Group 36957" transform="translate(0)">
        <path id="Path_35717" data-name="Path 35717" d="M43.077,19.731V38a.724.724,0,0,1-.713.731H6.713A.724.724,0,0,1,6,38V19.731A.724.724,0,0,1,6.713,19H42.364A.724.724,0,0,1,43.077,19.731Z" transform="translate(-6 -19)" fill="#2fa9ba"/>
      </g>
    </g>
    <g id="Group_36960" data-name="Group 36960" transform="translate(39.615 35.402)">
      <g id="Group_36959" data-name="Group 36959">
        <path id="Path_35718" data-name="Path 35718" d="M54.731,49.462h1.462a.731.731,0,0,0,0-1.462H54.731a.731.731,0,0,0,0,1.462Z" transform="translate(-54 -48)" fill="#f0f0f0"/>
      </g>
    </g>
    <g id="Group_36962" data-name="Group 36962" transform="translate(8.385 14.542)">
      <g id="Group_36961" data-name="Group 36961" transform="translate(0)">
        <path id="Path_35719" data-name="Path 35719" d="M10,19V35.077a.723.723,0,0,0,.71.731H40.521a.723.723,0,0,0,.71-.731V19Z" transform="translate(-10 -19)" fill="#dc9600"/>
      </g>
    </g>
    <g id="Group_36964" data-name="Group 36964" transform="translate(8.385 8.385)">
      <g id="Group_36963" data-name="Group 36963" transform="translate(0 0)">
        <path id="Path_35720" data-name="Path 35720" d="M41.231,10V31.923a.723.723,0,0,1-.71.731H10.71a.723.723,0,0,1-.71-.731V10Z" transform="translate(-10 -10)" fill="#f0f0f0"/>
      </g>
    </g>
    <g id="Group_36966" data-name="Group 36966" transform="translate(14.354 10.301)">
      <g id="Group_36965" data-name="Group 36965">
        <path id="Path_35721" data-name="Path 35721" d="M35.965,28.258l.428-.428a.71.71,0,0,0,.186-.693,9.486,9.486,0,1,0-1.646,2.155l1.033,1.033A.731.731,0,0,0,37,29.292Z" transform="translate(-18.791 -13.001)" fill="#d2d2d2"/>
      </g>
    </g>
    <g id="Group_36968" data-name="Group 36968" transform="translate(8.385 4)">
      <g id="Group_36967" data-name="Group 36967" transform="translate(0)">
        <path id="Path_35722" data-name="Path 35722" d="M41.231,8.385H10V4.731A.721.721,0,0,1,10.71,4H40.521a.721.721,0,0,1,.71.731Z" transform="translate(-10 -4)" fill="#49c2d3"/>
      </g>
    </g>
    <g id="Group_36970" data-name="Group 36970" transform="translate(36.692 5.462)">
      <g id="Group_36969" data-name="Group 36969" transform="translate(0 0)">
        <path id="Path_35723" data-name="Path 35723" d="M50.731,7.462A.731.731,0,1,0,50,6.731.731.731,0,0,0,50.731,7.462Z" transform="translate(-50 -6)" fill="#2fa9ba"/>
      </g>
    </g>
    <g id="Group_36972" data-name="Group 36972" transform="translate(33.974 5.462)">
      <g id="Group_36971" data-name="Group 36971" transform="translate(0 0)">
        <path id="Path_35724" data-name="Path 35724" d="M46.731,7.462A.731.731,0,1,0,46,6.731.731.731,0,0,0,46.731,7.462Z" transform="translate(-46 -6)" fill="#f0f0f0"/>
      </g>
    </g>
    <g id="Group_36974" data-name="Group 36974" transform="translate(31.12 5.462)">
      <g id="Group_36973" data-name="Group 36973" transform="translate(0 0)">
        <path id="Path_35725" data-name="Path 35725" d="M42.731,7.462A.731.731,0,1,0,42,6.731.731.731,0,0,0,42.731,7.462Z" transform="translate(-42 -6)" fill="#c80a50"/>
      </g>
    </g>
    <g id="Group_36985" data-name="Group 36985" transform="translate(14.353 9.846)">
      <g id="Group_36976" data-name="Group 36976">
        <g id="Group_36975" data-name="Group 36975">
          <path id="Path_35726" data-name="Path 35726" d="M37.79,21.5a9.436,9.436,0,0,1-1.425,5.006,9.593,9.593,0,0,1-2.887,2.952A9.5,9.5,0,1,1,37.79,21.5Z" transform="translate(-18.79 -12)" fill="#fab400"/>
        </g>
      </g>
      <g id="Group_36978" data-name="Group 36978" transform="translate(14.469 14.316)">
        <g id="Group_36977" data-name="Group 36977">
          <path id="Path_35727" data-name="Path 35727" d="M41.7,31.78a9.594,9.594,0,0,1-2.887,2.952.739.739,0,0,1-.219-.526V32.321a.724.724,0,0,1,.731-.731h1.885a.7.7,0,0,1,.49.19Z" transform="translate(-38.59 -31.59)" fill="#dc9600"/>
        </g>
      </g>
      <g id="Group_36980" data-name="Group 36980" transform="translate(1.464 1.462)">
        <g id="Group_36979" data-name="Group 36979">
          <circle id="Ellipse_151" data-name="Ellipse 151" cx="8.038" cy="8.038" r="8.038" fill="#dc9600"/>
        </g>
      </g>
      <g id="Group_36982" data-name="Group 36982" transform="translate(5.848 2.923)">
        <g id="Group_36981" data-name="Group 36981">
          <path id="Path_35728" data-name="Path 35728" d="M31.178,21.846H29.716a1.462,1.462,0,0,1,0-2.923h1.462a1.463,1.463,0,0,1,1.462,1.462.731.731,0,1,0,1.462,0,2.926,2.926,0,0,0-2.923-2.923v-.731a.731.731,0,1,0-1.462,0v.731a2.923,2.923,0,1,0,0,5.846h1.462a1.462,1.462,0,1,1,0,2.923H29.716a1.463,1.463,0,0,1-1.462-1.462.731.731,0,0,0-1.462,0,2.926,2.926,0,0,0,2.923,2.923v.731a.731.731,0,1,0,1.462,0v-.731a2.923,2.923,0,1,0,0-5.846Z" transform="translate(-26.793 -16)" fill="#f0f0f0"/>
        </g>
      </g>
      <g id="Group_36984" data-name="Group 36984" transform="translate(14.466 13.582)">
        <g id="Group_36983" data-name="Group 36983">
          <path id="Path_35729" data-name="Path 35729" d="M42.328,33.295l-1.033-1.033.428-.428a.731.731,0,0,0-.517-1.247h-1.89a.731.731,0,0,0-.731.731v1.89a.731.731,0,0,0,1.247.517l.428-.428,1.033,1.033a.731.731,0,1,0,1.033-1.033Z" transform="translate(-38.586 -30.586)" fill="#c80a50"/>
        </g>
      </g>
    </g>
  </g>
</svg>
