<svg id="_x36_5.QuoteLeft" xmlns="http://www.w3.org/2000/svg" width="65" height="56" viewBox="0 0 65 56">
  <path id="Path_34876" data-name="Path 34876" d="M28,65.25H18v-8a8.008,8.008,0,0,1,8-8h1a2.993,2.993,0,0,0,3-3v-6a2.993,2.993,0,0,0-3-3H26a20,20,0,0,0-20,20v30a6,6,0,0,0,6,6H28a6,6,0,0,0,6-6v-16A6,6,0,0,0,28,65.25Z" transform="translate(-6 -37.25)" fill="#b8c6d9"/>
  <path id="Path_34877" data-name="Path 34877" d="M309.252,65.25h-10v-8a8.008,8.008,0,0,1,8-8h1a2.993,2.993,0,0,0,3-3v-6a2.993,2.993,0,0,0-3-3h-1a20,20,0,0,0-20,20v30a6,6,0,0,0,6,6h16a6,6,0,0,0,6-6v-16A6,6,0,0,0,309.252,65.25Z" transform="translate(-250.253 -37.25)" fill="#b8c6d9"/>
</svg>
