<svg id="_x36_5.QuoteLeft" xmlns="http://www.w3.org/2000/svg" width="65" height="56" viewBox="0 0 65 56">
  <path id="Path_34876" data-name="Path 34876" d="M12,65.25H22v8a8.008,8.008,0,0,1-8,8H13a2.993,2.993,0,0,0-3,3v6a2.993,2.993,0,0,0,3,3h1a20,20,0,0,0,20-20v-30a6,6,0,0,0-6-6H12a6,6,0,0,0-6,6v16A6,6,0,0,0,12,65.25Z" transform="translate(30.997 -37.25)" fill="#b8c6d9"/>
  <path id="Path_34877" data-name="Path 34877" d="M293.251,65.25h10v8a8.008,8.008,0,0,1-8,8h-1a2.993,2.993,0,0,0-3,3v6a2.993,2.993,0,0,0,3,3h1a20,20,0,0,0,20-20v-30a6,6,0,0,0-6-6h-16a6,6,0,0,0-6,6v16A6,6,0,0,0,293.251,65.25Z" transform="translate(-287.25 -37.25)" fill="#b8c6d9"/>
</svg>
