<svg xmlns="http://www.w3.org/2000/svg" width="28" height="28" viewBox="0 0 28 28">
  <g id="Group_36032" data-name="Group 36032" transform="translate(-722 -4459)">
    <rect id="Rectangle_19541" data-name="Rectangle 19541" width="28" height="28" rx="4" transform="translate(722 4459)" fill="#49c2d3"/>
    <g id="right_1_" data-name="right (1)" transform="translate(602.995 4463)">
      <g id="Group_36030" data-name="Group 36030" transform="translate(128.005 -0.001)">
        <path id="Path_34878" data-name="Path 34878" d="M137.889,9.711,128.723.128A.417.417,0,0,0,128,.416V2.083a.416.416,0,0,0,.114.286L135.348,10l-7.229,7.63a.416.416,0,0,0-.114.286v1.667a.417.417,0,0,0,.718.288l9.166-9.583A.417.417,0,0,0,137.889,9.711Z" transform="translate(-128.005 0.001)" fill="#fff"/>
      </g>
    </g>
  </g>
</svg>
